M48
;DRILL file {KiCad (2015-08-05 BZR 6055, Git fa29c62)-product} date 4/15/2016 12:47:44 PM
;FORMAT={-:-/ absolute / inch / decimal}
FMAT,2
INCH,TZ
T1C0.016
T2C0.022
T3C0.051
T4C0.126
%
G90
G05
M72
T1
X1.4048Y-3.5252
X1.6965Y-3.4035
X1.9515Y-3.8055
X2.628Y-3.057
X2.8271Y-3.0257
X2.8696Y-2.9413
X3.028Y-2.233
X3.0304Y-2.7739
X3.2397Y-2.4919
X3.8001Y-2.6148
X3.8038Y-2.9747
X3.8676Y-2.7528
X3.9698Y-2.435
X4.5762Y-2.8493
T2
X2.985Y-3.95
X3.085Y-3.35
X3.085Y-3.95
X3.185Y-3.35
X3.185Y-3.95
X3.785Y-3.35
X3.785Y-3.95
X3.985Y-3.35
X3.985Y-3.95
T3
X1.2114Y-2.4294
X1.2114Y-2.6294
X1.2214Y-3.1252
X1.2214Y-3.3252
X1.2214Y-3.5252
X1.2214Y-3.7252
X5.315Y-2.26
X5.315Y-2.46
X5.315Y-2.66
X5.315Y-2.86
X5.315Y-3.06
X5.315Y-3.26
X5.315Y-3.46
X5.315Y-3.66
X5.315Y-3.86
X5.315Y-4.06
T4
X1.255Y-1.98
X1.255Y-4.35
X3.255Y-1.98
X3.255Y-4.35
X5.065Y-1.98
X5.065Y-4.35
T0
M30
