G04 #@! TF.FileFunction,Copper,L1,Top,Signal*
%FSLAX46Y46*%
G04 Gerber Fmt 4.6, Leading zero omitted, Abs format (unit mm)*
G04 Created by KiCad (PCBNEW (2015-08-05 BZR 6055, Git fa29c62)-product) date 4/15/2016 12:47:28 PM*
%MOMM*%
G01*
G04 APERTURE LIST*
%ADD10C,0.100000*%
%ADD11C,0.002540*%
%ADD12C,6.400000*%
%ADD13R,1.200000X0.750000*%
%ADD14R,0.750000X1.200000*%
%ADD15R,2.000000X1.700000*%
%ADD16R,1.700000X2.000000*%
%ADD17R,1.200000X0.900000*%
%ADD18R,1.500000X2.000000*%
%ADD19R,3.800000X2.000000*%
%ADD20R,1.800000X0.600000*%
%ADD21R,1.000000X0.510000*%
%ADD22R,1.450000X0.610000*%
%ADD23R,3.000000X3.000000*%
%ADD24O,3.000000X3.000000*%
%ADD25C,3.000000*%
%ADD26R,5.000000X2.400000*%
%ADD27R,0.510000X1.000000*%
%ADD28C,1.000000*%
%ADD29R,0.760000X5.000000*%
%ADD30R,8.800000X4.500000*%
%ADD31C,0.762000*%
%ADD32C,0.355600*%
%ADD33C,0.350000*%
G04 APERTURE END LIST*
D10*
D11*
G36*
X108215180Y-46422780D02*
X108212640Y-47728340D01*
X108212640Y-47903600D01*
X108212640Y-48063620D01*
X108212640Y-48208400D01*
X108212640Y-48335400D01*
X108212640Y-48452240D01*
X108212640Y-48553840D01*
X108212640Y-48642740D01*
X108212640Y-48718940D01*
X108210100Y-48784980D01*
X108210100Y-48840860D01*
X108210100Y-48886580D01*
X108210100Y-48922140D01*
X108207560Y-48950080D01*
X108207560Y-48967860D01*
X108205020Y-48980560D01*
X108205020Y-48988180D01*
X108202480Y-48988180D01*
X108202480Y-48983100D01*
X108202480Y-48983100D01*
X108184700Y-48922140D01*
X108161840Y-48861180D01*
X108136440Y-48807840D01*
X108111040Y-48764660D01*
X108095800Y-48746880D01*
X108088180Y-48736720D01*
X108085640Y-48726560D01*
X108085640Y-48713860D01*
X108088180Y-48691000D01*
X108095800Y-48657980D01*
X108113580Y-48551300D01*
X108126280Y-48442080D01*
X108128820Y-48327780D01*
X108126280Y-48216020D01*
X108116120Y-48109340D01*
X108095800Y-48015360D01*
X108095800Y-48010280D01*
X108067860Y-47923920D01*
X108029760Y-47852800D01*
X107984040Y-47794380D01*
X107930700Y-47751200D01*
X107902760Y-47735960D01*
X107874820Y-47723260D01*
X107846880Y-47715640D01*
X107816400Y-47713100D01*
X107783380Y-47713100D01*
X107745280Y-47713100D01*
X107714800Y-47715640D01*
X107691940Y-47723260D01*
X107661460Y-47735960D01*
X107653840Y-47741040D01*
X107595420Y-47779140D01*
X107559860Y-47812160D01*
X107521760Y-47855340D01*
X107511600Y-47791840D01*
X107486200Y-47680080D01*
X107448100Y-47570860D01*
X107397300Y-47474340D01*
X107394760Y-47466720D01*
X107359200Y-47413380D01*
X107376980Y-47354960D01*
X107392220Y-47294000D01*
X107404920Y-47240660D01*
X107412540Y-47187320D01*
X107417620Y-47133980D01*
X107420160Y-47073020D01*
X107422700Y-47001900D01*
X107422700Y-46971420D01*
X107420160Y-46872360D01*
X107415080Y-46788540D01*
X107407460Y-46717420D01*
X107392220Y-46656460D01*
X107374440Y-46605660D01*
X107349040Y-46562480D01*
X107321100Y-46524380D01*
X107298240Y-46504060D01*
X107260140Y-46471040D01*
X107222040Y-46450720D01*
X107181400Y-46438020D01*
X107130600Y-46430400D01*
X107092500Y-46430400D01*
X107039160Y-46432940D01*
X106990900Y-46443100D01*
X106947720Y-46460880D01*
X106909620Y-46491360D01*
X106868980Y-46532000D01*
X106825800Y-46585340D01*
X106808020Y-46608200D01*
X106724200Y-46737740D01*
X106650540Y-46874900D01*
X106587040Y-47012060D01*
X106538780Y-47151760D01*
X106521000Y-47207640D01*
X106510840Y-47245740D01*
X106503220Y-47276220D01*
X106495600Y-47299080D01*
X106493060Y-47306700D01*
X106437180Y-47349880D01*
X106373680Y-47403220D01*
X106310180Y-47461640D01*
X106249220Y-47525140D01*
X106211120Y-47568320D01*
X106167940Y-47619120D01*
X106134920Y-47548000D01*
X106117140Y-47512440D01*
X106099360Y-47479420D01*
X106084120Y-47454020D01*
X106079040Y-47446400D01*
X106058720Y-47418460D01*
X106076500Y-47342260D01*
X106099360Y-47245740D01*
X106114600Y-47141600D01*
X106122220Y-47034920D01*
X106122220Y-46930780D01*
X106117140Y-46829180D01*
X106106980Y-46735200D01*
X106089200Y-46653920D01*
X106084120Y-46638680D01*
X106056180Y-46575180D01*
X106020620Y-46521840D01*
X105979980Y-46486280D01*
X105939340Y-46458340D01*
X105898700Y-46443100D01*
X105855520Y-46432940D01*
X105802180Y-46430400D01*
X105789480Y-46430400D01*
X105738680Y-46432940D01*
X105695500Y-46440560D01*
X105654860Y-46458340D01*
X105616760Y-46483740D01*
X105578660Y-46519300D01*
X105538020Y-46565020D01*
X105494840Y-46625980D01*
X105469440Y-46661540D01*
X105403400Y-46768220D01*
X105344980Y-46882520D01*
X105291640Y-46999360D01*
X105248460Y-47113660D01*
X105215440Y-47222880D01*
X105212900Y-47235580D01*
X105197660Y-47301620D01*
X105141780Y-47344800D01*
X105052880Y-47415920D01*
X104969060Y-47502280D01*
X104887780Y-47598800D01*
X104814120Y-47700400D01*
X104750620Y-47804540D01*
X104743000Y-47822320D01*
X104702360Y-47898520D01*
X104687120Y-47870580D01*
X104654100Y-47819780D01*
X104605840Y-47776600D01*
X104549960Y-47741040D01*
X104489000Y-47718180D01*
X104453440Y-47710560D01*
X104397560Y-47710560D01*
X104344220Y-47720720D01*
X104295960Y-47741040D01*
X104245160Y-47771520D01*
X104194360Y-47817240D01*
X104141020Y-47878200D01*
X104082600Y-47951860D01*
X104049580Y-48000120D01*
X103965760Y-48132200D01*
X103894640Y-48266820D01*
X103838760Y-48401440D01*
X103798120Y-48525900D01*
X103767640Y-48627500D01*
X103724460Y-48652900D01*
X103693980Y-48673220D01*
X103658420Y-48703700D01*
X103617780Y-48741800D01*
X103577140Y-48782440D01*
X103536500Y-48823080D01*
X103503480Y-48863720D01*
X103480620Y-48891660D01*
X103417120Y-49003420D01*
X103366320Y-49125340D01*
X103328220Y-49249800D01*
X103325680Y-49267580D01*
X103318060Y-49315840D01*
X103312980Y-49376800D01*
X103310440Y-49442840D01*
X103312980Y-49513960D01*
X103315520Y-49580000D01*
X103320600Y-49640960D01*
X103328220Y-49691760D01*
X103328220Y-49699380D01*
X103361240Y-49816220D01*
X103409500Y-49925440D01*
X103467920Y-50027040D01*
X103536500Y-50118480D01*
X103617780Y-50197220D01*
X103696520Y-50255640D01*
X103742240Y-50283580D01*
X103798120Y-50311520D01*
X103854000Y-50334380D01*
X103904800Y-50352160D01*
X103914960Y-50354700D01*
X103937820Y-50359780D01*
X103889560Y-50418200D01*
X103813360Y-50512180D01*
X103749860Y-50608700D01*
X103699060Y-50707760D01*
X103658420Y-50811900D01*
X103635560Y-50890640D01*
X103622860Y-50961760D01*
X103615240Y-51040500D01*
X103612700Y-51119240D01*
X103617780Y-51195440D01*
X103630480Y-51261480D01*
X103633020Y-51266560D01*
X103666040Y-51363080D01*
X103714300Y-51449440D01*
X103775260Y-51528180D01*
X103846380Y-51594220D01*
X103927660Y-51647560D01*
X104019100Y-51688200D01*
X104064820Y-51703440D01*
X104100380Y-51713600D01*
X104128320Y-51721220D01*
X104148640Y-51723760D01*
X104146100Y-51726300D01*
X104125780Y-51726300D01*
X104092760Y-51726300D01*
X104047040Y-51726300D01*
X103991160Y-51728840D01*
X103925120Y-51728840D01*
X103848920Y-51728840D01*
X103767640Y-51728840D01*
X103737160Y-51728840D01*
X103302820Y-51731380D01*
X103302820Y-49077080D01*
X103302820Y-46422780D01*
X105759000Y-46422780D01*
X108215180Y-46422780D01*
X108215180Y-46422780D01*
X108215180Y-46422780D01*
G37*
X108215180Y-46422780D02*
X108212640Y-47728340D01*
X108212640Y-47903600D01*
X108212640Y-48063620D01*
X108212640Y-48208400D01*
X108212640Y-48335400D01*
X108212640Y-48452240D01*
X108212640Y-48553840D01*
X108212640Y-48642740D01*
X108212640Y-48718940D01*
X108210100Y-48784980D01*
X108210100Y-48840860D01*
X108210100Y-48886580D01*
X108210100Y-48922140D01*
X108207560Y-48950080D01*
X108207560Y-48967860D01*
X108205020Y-48980560D01*
X108205020Y-48988180D01*
X108202480Y-48988180D01*
X108202480Y-48983100D01*
X108202480Y-48983100D01*
X108184700Y-48922140D01*
X108161840Y-48861180D01*
X108136440Y-48807840D01*
X108111040Y-48764660D01*
X108095800Y-48746880D01*
X108088180Y-48736720D01*
X108085640Y-48726560D01*
X108085640Y-48713860D01*
X108088180Y-48691000D01*
X108095800Y-48657980D01*
X108113580Y-48551300D01*
X108126280Y-48442080D01*
X108128820Y-48327780D01*
X108126280Y-48216020D01*
X108116120Y-48109340D01*
X108095800Y-48015360D01*
X108095800Y-48010280D01*
X108067860Y-47923920D01*
X108029760Y-47852800D01*
X107984040Y-47794380D01*
X107930700Y-47751200D01*
X107902760Y-47735960D01*
X107874820Y-47723260D01*
X107846880Y-47715640D01*
X107816400Y-47713100D01*
X107783380Y-47713100D01*
X107745280Y-47713100D01*
X107714800Y-47715640D01*
X107691940Y-47723260D01*
X107661460Y-47735960D01*
X107653840Y-47741040D01*
X107595420Y-47779140D01*
X107559860Y-47812160D01*
X107521760Y-47855340D01*
X107511600Y-47791840D01*
X107486200Y-47680080D01*
X107448100Y-47570860D01*
X107397300Y-47474340D01*
X107394760Y-47466720D01*
X107359200Y-47413380D01*
X107376980Y-47354960D01*
X107392220Y-47294000D01*
X107404920Y-47240660D01*
X107412540Y-47187320D01*
X107417620Y-47133980D01*
X107420160Y-47073020D01*
X107422700Y-47001900D01*
X107422700Y-46971420D01*
X107420160Y-46872360D01*
X107415080Y-46788540D01*
X107407460Y-46717420D01*
X107392220Y-46656460D01*
X107374440Y-46605660D01*
X107349040Y-46562480D01*
X107321100Y-46524380D01*
X107298240Y-46504060D01*
X107260140Y-46471040D01*
X107222040Y-46450720D01*
X107181400Y-46438020D01*
X107130600Y-46430400D01*
X107092500Y-46430400D01*
X107039160Y-46432940D01*
X106990900Y-46443100D01*
X106947720Y-46460880D01*
X106909620Y-46491360D01*
X106868980Y-46532000D01*
X106825800Y-46585340D01*
X106808020Y-46608200D01*
X106724200Y-46737740D01*
X106650540Y-46874900D01*
X106587040Y-47012060D01*
X106538780Y-47151760D01*
X106521000Y-47207640D01*
X106510840Y-47245740D01*
X106503220Y-47276220D01*
X106495600Y-47299080D01*
X106493060Y-47306700D01*
X106437180Y-47349880D01*
X106373680Y-47403220D01*
X106310180Y-47461640D01*
X106249220Y-47525140D01*
X106211120Y-47568320D01*
X106167940Y-47619120D01*
X106134920Y-47548000D01*
X106117140Y-47512440D01*
X106099360Y-47479420D01*
X106084120Y-47454020D01*
X106079040Y-47446400D01*
X106058720Y-47418460D01*
X106076500Y-47342260D01*
X106099360Y-47245740D01*
X106114600Y-47141600D01*
X106122220Y-47034920D01*
X106122220Y-46930780D01*
X106117140Y-46829180D01*
X106106980Y-46735200D01*
X106089200Y-46653920D01*
X106084120Y-46638680D01*
X106056180Y-46575180D01*
X106020620Y-46521840D01*
X105979980Y-46486280D01*
X105939340Y-46458340D01*
X105898700Y-46443100D01*
X105855520Y-46432940D01*
X105802180Y-46430400D01*
X105789480Y-46430400D01*
X105738680Y-46432940D01*
X105695500Y-46440560D01*
X105654860Y-46458340D01*
X105616760Y-46483740D01*
X105578660Y-46519300D01*
X105538020Y-46565020D01*
X105494840Y-46625980D01*
X105469440Y-46661540D01*
X105403400Y-46768220D01*
X105344980Y-46882520D01*
X105291640Y-46999360D01*
X105248460Y-47113660D01*
X105215440Y-47222880D01*
X105212900Y-47235580D01*
X105197660Y-47301620D01*
X105141780Y-47344800D01*
X105052880Y-47415920D01*
X104969060Y-47502280D01*
X104887780Y-47598800D01*
X104814120Y-47700400D01*
X104750620Y-47804540D01*
X104743000Y-47822320D01*
X104702360Y-47898520D01*
X104687120Y-47870580D01*
X104654100Y-47819780D01*
X104605840Y-47776600D01*
X104549960Y-47741040D01*
X104489000Y-47718180D01*
X104453440Y-47710560D01*
X104397560Y-47710560D01*
X104344220Y-47720720D01*
X104295960Y-47741040D01*
X104245160Y-47771520D01*
X104194360Y-47817240D01*
X104141020Y-47878200D01*
X104082600Y-47951860D01*
X104049580Y-48000120D01*
X103965760Y-48132200D01*
X103894640Y-48266820D01*
X103838760Y-48401440D01*
X103798120Y-48525900D01*
X103767640Y-48627500D01*
X103724460Y-48652900D01*
X103693980Y-48673220D01*
X103658420Y-48703700D01*
X103617780Y-48741800D01*
X103577140Y-48782440D01*
X103536500Y-48823080D01*
X103503480Y-48863720D01*
X103480620Y-48891660D01*
X103417120Y-49003420D01*
X103366320Y-49125340D01*
X103328220Y-49249800D01*
X103325680Y-49267580D01*
X103318060Y-49315840D01*
X103312980Y-49376800D01*
X103310440Y-49442840D01*
X103312980Y-49513960D01*
X103315520Y-49580000D01*
X103320600Y-49640960D01*
X103328220Y-49691760D01*
X103328220Y-49699380D01*
X103361240Y-49816220D01*
X103409500Y-49925440D01*
X103467920Y-50027040D01*
X103536500Y-50118480D01*
X103617780Y-50197220D01*
X103696520Y-50255640D01*
X103742240Y-50283580D01*
X103798120Y-50311520D01*
X103854000Y-50334380D01*
X103904800Y-50352160D01*
X103914960Y-50354700D01*
X103937820Y-50359780D01*
X103889560Y-50418200D01*
X103813360Y-50512180D01*
X103749860Y-50608700D01*
X103699060Y-50707760D01*
X103658420Y-50811900D01*
X103635560Y-50890640D01*
X103622860Y-50961760D01*
X103615240Y-51040500D01*
X103612700Y-51119240D01*
X103617780Y-51195440D01*
X103630480Y-51261480D01*
X103633020Y-51266560D01*
X103666040Y-51363080D01*
X103714300Y-51449440D01*
X103775260Y-51528180D01*
X103846380Y-51594220D01*
X103927660Y-51647560D01*
X104019100Y-51688200D01*
X104064820Y-51703440D01*
X104100380Y-51713600D01*
X104128320Y-51721220D01*
X104148640Y-51723760D01*
X104146100Y-51726300D01*
X104125780Y-51726300D01*
X104092760Y-51726300D01*
X104047040Y-51726300D01*
X103991160Y-51728840D01*
X103925120Y-51728840D01*
X103848920Y-51728840D01*
X103767640Y-51728840D01*
X103737160Y-51728840D01*
X103302820Y-51731380D01*
X103302820Y-49077080D01*
X103302820Y-46422780D01*
X105759000Y-46422780D01*
X108215180Y-46422780D01*
X108215180Y-46422780D01*
G36*
X105957120Y-51721220D02*
X105954580Y-51723760D01*
X105944420Y-51723760D01*
X105929180Y-51726300D01*
X105903780Y-51726300D01*
X105870760Y-51726300D01*
X105827580Y-51728840D01*
X105774240Y-51728840D01*
X105708200Y-51728840D01*
X105629460Y-51728840D01*
X105535480Y-51728840D01*
X105431340Y-51728840D01*
X105309420Y-51728840D01*
X105187500Y-51728840D01*
X105050340Y-51728840D01*
X104930960Y-51728840D01*
X104824280Y-51728840D01*
X104732840Y-51728840D01*
X104656640Y-51728840D01*
X104590600Y-51728840D01*
X104539800Y-51726300D01*
X104496620Y-51726300D01*
X104466140Y-51726300D01*
X104443280Y-51723760D01*
X104428040Y-51723760D01*
X104420420Y-51721220D01*
X104420420Y-51721220D01*
X104428040Y-51718680D01*
X104430580Y-51718680D01*
X104481380Y-51705980D01*
X104532180Y-51690740D01*
X104588060Y-51670420D01*
X104649020Y-51642480D01*
X104709980Y-51614540D01*
X104826820Y-51558660D01*
X104867460Y-51594220D01*
X104933500Y-51642480D01*
X105009700Y-51675500D01*
X105096060Y-51698360D01*
X105190040Y-51705980D01*
X105192580Y-51705980D01*
X105276400Y-51700900D01*
X105357680Y-51683120D01*
X105436420Y-51655180D01*
X105520240Y-51612000D01*
X105560880Y-51586600D01*
X105614220Y-51551040D01*
X105659940Y-51586600D01*
X105753920Y-51647560D01*
X105852980Y-51690740D01*
X105944420Y-51718680D01*
X105952040Y-51718680D01*
X105957120Y-51721220D01*
X105957120Y-51721220D01*
X105957120Y-51721220D01*
G37*
X105957120Y-51721220D02*
X105954580Y-51723760D01*
X105944420Y-51723760D01*
X105929180Y-51726300D01*
X105903780Y-51726300D01*
X105870760Y-51726300D01*
X105827580Y-51728840D01*
X105774240Y-51728840D01*
X105708200Y-51728840D01*
X105629460Y-51728840D01*
X105535480Y-51728840D01*
X105431340Y-51728840D01*
X105309420Y-51728840D01*
X105187500Y-51728840D01*
X105050340Y-51728840D01*
X104930960Y-51728840D01*
X104824280Y-51728840D01*
X104732840Y-51728840D01*
X104656640Y-51728840D01*
X104590600Y-51728840D01*
X104539800Y-51726300D01*
X104496620Y-51726300D01*
X104466140Y-51726300D01*
X104443280Y-51723760D01*
X104428040Y-51723760D01*
X104420420Y-51721220D01*
X104420420Y-51721220D01*
X104428040Y-51718680D01*
X104430580Y-51718680D01*
X104481380Y-51705980D01*
X104532180Y-51690740D01*
X104588060Y-51670420D01*
X104649020Y-51642480D01*
X104709980Y-51614540D01*
X104826820Y-51558660D01*
X104867460Y-51594220D01*
X104933500Y-51642480D01*
X105009700Y-51675500D01*
X105096060Y-51698360D01*
X105190040Y-51705980D01*
X105192580Y-51705980D01*
X105276400Y-51700900D01*
X105357680Y-51683120D01*
X105436420Y-51655180D01*
X105520240Y-51612000D01*
X105560880Y-51586600D01*
X105614220Y-51551040D01*
X105659940Y-51586600D01*
X105753920Y-51647560D01*
X105852980Y-51690740D01*
X105944420Y-51718680D01*
X105952040Y-51718680D01*
X105957120Y-51721220D01*
X105957120Y-51721220D01*
G36*
X108215180Y-51731380D02*
X107211880Y-51728840D01*
X107211880Y-50476620D01*
X107209340Y-50471540D01*
X107201720Y-50471540D01*
X107189020Y-50479160D01*
X107186480Y-50502020D01*
X107186480Y-50504560D01*
X107186480Y-50524880D01*
X107191560Y-50529960D01*
X107196640Y-50517260D01*
X107206800Y-50496940D01*
X107211880Y-50476620D01*
X107211880Y-51728840D01*
X107209340Y-51728840D01*
X107178860Y-51728840D01*
X107178860Y-50496940D01*
X107171240Y-50499480D01*
X107168700Y-50502020D01*
X107158540Y-50507100D01*
X107156000Y-50499480D01*
X107156000Y-50491860D01*
X107150920Y-50474080D01*
X107140760Y-50469000D01*
X107130600Y-50479160D01*
X107128060Y-50489320D01*
X107120440Y-50512180D01*
X107117900Y-50522340D01*
X107117900Y-50474080D01*
X107112820Y-50471540D01*
X107095040Y-50469000D01*
X107092500Y-50469000D01*
X107072180Y-50471540D01*
X107067100Y-50474080D01*
X107069640Y-50476620D01*
X107077260Y-50486780D01*
X107072180Y-50504560D01*
X107072180Y-50507100D01*
X107064560Y-50524880D01*
X107064560Y-50535040D01*
X107067100Y-50535040D01*
X107074720Y-50527420D01*
X107082340Y-50512180D01*
X107087420Y-50499480D01*
X107087420Y-50496940D01*
X107095040Y-50484240D01*
X107107740Y-50476620D01*
X107117900Y-50474080D01*
X107117900Y-50522340D01*
X107115360Y-50535040D01*
X107117900Y-50535040D01*
X107128060Y-50524880D01*
X107133140Y-50514720D01*
X107145840Y-50489320D01*
X107148380Y-50514720D01*
X107150920Y-50532500D01*
X107156000Y-50535040D01*
X107168700Y-50522340D01*
X107178860Y-50507100D01*
X107178860Y-50496940D01*
X107178860Y-51728840D01*
X107056940Y-51728840D01*
X106919780Y-51728840D01*
X106797860Y-51728840D01*
X106688640Y-51728840D01*
X106597200Y-51728840D01*
X106515920Y-51728840D01*
X106447340Y-51728840D01*
X106391460Y-51726300D01*
X106345740Y-51726300D01*
X106310180Y-51726300D01*
X106284780Y-51723760D01*
X106264460Y-51723760D01*
X106254300Y-51721220D01*
X106251760Y-51721220D01*
X106254300Y-51718680D01*
X106259380Y-51718680D01*
X106376220Y-51685660D01*
X106487980Y-51639940D01*
X106592120Y-51578980D01*
X106691180Y-51502780D01*
X106762300Y-51434200D01*
X106835960Y-51347840D01*
X106896920Y-51253860D01*
X106945180Y-51152260D01*
X106985820Y-51040500D01*
X106993440Y-51012560D01*
X107001060Y-50977000D01*
X107008680Y-50949060D01*
X107011220Y-50918580D01*
X107013760Y-50883020D01*
X107016300Y-50837300D01*
X107016300Y-50791580D01*
X107013760Y-50715380D01*
X107011220Y-50649340D01*
X107001060Y-50593460D01*
X106985820Y-50540120D01*
X106965500Y-50484240D01*
X106947720Y-50446140D01*
X106935020Y-50415660D01*
X106924860Y-50392800D01*
X106919780Y-50380100D01*
X106919780Y-50380100D01*
X106927400Y-50377560D01*
X106947720Y-50377560D01*
X106978200Y-50375020D01*
X106990900Y-50375020D01*
X107100120Y-50367400D01*
X107214420Y-50344540D01*
X107328720Y-50306440D01*
X107443020Y-50255640D01*
X107557320Y-50189600D01*
X107605580Y-50156580D01*
X107653840Y-50121020D01*
X107709720Y-50072760D01*
X107768140Y-50016880D01*
X107826560Y-49958460D01*
X107879900Y-49900040D01*
X107928160Y-49844160D01*
X107968800Y-49795900D01*
X107971340Y-49790820D01*
X108052620Y-49666360D01*
X108116120Y-49539360D01*
X108166920Y-49412360D01*
X108197400Y-49300600D01*
X108212640Y-49219320D01*
X108212640Y-50476620D01*
X108215180Y-51731380D01*
X108215180Y-51731380D01*
X108215180Y-51731380D01*
G37*
X108215180Y-51731380D02*
X107211880Y-51728840D01*
X107211880Y-50476620D01*
X107209340Y-50471540D01*
X107201720Y-50471540D01*
X107189020Y-50479160D01*
X107186480Y-50502020D01*
X107186480Y-50504560D01*
X107186480Y-50524880D01*
X107191560Y-50529960D01*
X107196640Y-50517260D01*
X107206800Y-50496940D01*
X107211880Y-50476620D01*
X107211880Y-51728840D01*
X107209340Y-51728840D01*
X107178860Y-51728840D01*
X107178860Y-50496940D01*
X107171240Y-50499480D01*
X107168700Y-50502020D01*
X107158540Y-50507100D01*
X107156000Y-50499480D01*
X107156000Y-50491860D01*
X107150920Y-50474080D01*
X107140760Y-50469000D01*
X107130600Y-50479160D01*
X107128060Y-50489320D01*
X107120440Y-50512180D01*
X107117900Y-50522340D01*
X107117900Y-50474080D01*
X107112820Y-50471540D01*
X107095040Y-50469000D01*
X107092500Y-50469000D01*
X107072180Y-50471540D01*
X107067100Y-50474080D01*
X107069640Y-50476620D01*
X107077260Y-50486780D01*
X107072180Y-50504560D01*
X107072180Y-50507100D01*
X107064560Y-50524880D01*
X107064560Y-50535040D01*
X107067100Y-50535040D01*
X107074720Y-50527420D01*
X107082340Y-50512180D01*
X107087420Y-50499480D01*
X107087420Y-50496940D01*
X107095040Y-50484240D01*
X107107740Y-50476620D01*
X107117900Y-50474080D01*
X107117900Y-50522340D01*
X107115360Y-50535040D01*
X107117900Y-50535040D01*
X107128060Y-50524880D01*
X107133140Y-50514720D01*
X107145840Y-50489320D01*
X107148380Y-50514720D01*
X107150920Y-50532500D01*
X107156000Y-50535040D01*
X107168700Y-50522340D01*
X107178860Y-50507100D01*
X107178860Y-50496940D01*
X107178860Y-51728840D01*
X107056940Y-51728840D01*
X106919780Y-51728840D01*
X106797860Y-51728840D01*
X106688640Y-51728840D01*
X106597200Y-51728840D01*
X106515920Y-51728840D01*
X106447340Y-51728840D01*
X106391460Y-51726300D01*
X106345740Y-51726300D01*
X106310180Y-51726300D01*
X106284780Y-51723760D01*
X106264460Y-51723760D01*
X106254300Y-51721220D01*
X106251760Y-51721220D01*
X106254300Y-51718680D01*
X106259380Y-51718680D01*
X106376220Y-51685660D01*
X106487980Y-51639940D01*
X106592120Y-51578980D01*
X106691180Y-51502780D01*
X106762300Y-51434200D01*
X106835960Y-51347840D01*
X106896920Y-51253860D01*
X106945180Y-51152260D01*
X106985820Y-51040500D01*
X106993440Y-51012560D01*
X107001060Y-50977000D01*
X107008680Y-50949060D01*
X107011220Y-50918580D01*
X107013760Y-50883020D01*
X107016300Y-50837300D01*
X107016300Y-50791580D01*
X107013760Y-50715380D01*
X107011220Y-50649340D01*
X107001060Y-50593460D01*
X106985820Y-50540120D01*
X106965500Y-50484240D01*
X106947720Y-50446140D01*
X106935020Y-50415660D01*
X106924860Y-50392800D01*
X106919780Y-50380100D01*
X106919780Y-50380100D01*
X106927400Y-50377560D01*
X106947720Y-50377560D01*
X106978200Y-50375020D01*
X106990900Y-50375020D01*
X107100120Y-50367400D01*
X107214420Y-50344540D01*
X107328720Y-50306440D01*
X107443020Y-50255640D01*
X107557320Y-50189600D01*
X107605580Y-50156580D01*
X107653840Y-50121020D01*
X107709720Y-50072760D01*
X107768140Y-50016880D01*
X107826560Y-49958460D01*
X107879900Y-49900040D01*
X107928160Y-49844160D01*
X107968800Y-49795900D01*
X107971340Y-49790820D01*
X108052620Y-49666360D01*
X108116120Y-49539360D01*
X108166920Y-49412360D01*
X108197400Y-49300600D01*
X108212640Y-49219320D01*
X108212640Y-50476620D01*
X108215180Y-51731380D01*
X108215180Y-51731380D01*
G36*
X108116120Y-49143120D02*
X108111040Y-49201540D01*
X108105960Y-49252340D01*
X108100880Y-49280280D01*
X108093260Y-49315840D01*
X108080560Y-49359020D01*
X108065320Y-49404740D01*
X108062780Y-49414900D01*
X108011980Y-49531740D01*
X107945940Y-49648580D01*
X107905300Y-49709540D01*
X107905300Y-49135500D01*
X107905300Y-49087240D01*
X107902760Y-49054220D01*
X107900220Y-49028820D01*
X107895140Y-49008500D01*
X107890060Y-48988180D01*
X107884980Y-48983100D01*
X107851960Y-48927220D01*
X107831640Y-48906900D01*
X107831640Y-48297300D01*
X107829100Y-48274440D01*
X107826560Y-48231260D01*
X107818940Y-48185540D01*
X107811320Y-48139820D01*
X107803700Y-48099180D01*
X107796080Y-48063620D01*
X107788460Y-48038220D01*
X107783380Y-48028060D01*
X107775760Y-48030600D01*
X107763060Y-48045840D01*
X107742740Y-48073780D01*
X107722420Y-48109340D01*
X107697020Y-48152520D01*
X107671620Y-48200780D01*
X107648760Y-48251580D01*
X107623360Y-48302380D01*
X107603040Y-48353180D01*
X107585260Y-48398900D01*
X107585260Y-48401440D01*
X107564940Y-48464940D01*
X107547160Y-48533520D01*
X107529380Y-48612260D01*
X107516680Y-48678300D01*
X107511600Y-48706240D01*
X107557320Y-48693540D01*
X107585260Y-48688460D01*
X107623360Y-48685920D01*
X107666540Y-48683380D01*
X107689400Y-48683380D01*
X107780840Y-48683380D01*
X107798620Y-48602100D01*
X107818940Y-48495420D01*
X107829100Y-48393820D01*
X107831640Y-48297300D01*
X107831640Y-48906900D01*
X107806240Y-48884040D01*
X107770680Y-48861180D01*
X107724960Y-48845940D01*
X107666540Y-48835780D01*
X107605580Y-48835780D01*
X107539540Y-48840860D01*
X107498900Y-48851020D01*
X107397300Y-48886580D01*
X107298240Y-48934840D01*
X107204260Y-48998340D01*
X107110280Y-49069460D01*
X107026460Y-49153280D01*
X106947720Y-49242180D01*
X106876600Y-49336160D01*
X106818180Y-49435220D01*
X106772460Y-49536820D01*
X106739440Y-49638420D01*
X106724200Y-49717160D01*
X106721660Y-49793360D01*
X106729280Y-49864480D01*
X106752140Y-49927980D01*
X106785160Y-49981320D01*
X106825800Y-50021960D01*
X106879140Y-50052440D01*
X106891840Y-50057520D01*
X106937560Y-50067680D01*
X106993440Y-50070220D01*
X107054400Y-50067680D01*
X107112820Y-50060060D01*
X107138220Y-50054980D01*
X107239820Y-50019420D01*
X107338880Y-49968620D01*
X107435400Y-49905120D01*
X107529380Y-49828920D01*
X107615740Y-49745100D01*
X107697020Y-49651120D01*
X107765600Y-49552060D01*
X107826560Y-49447920D01*
X107872280Y-49341240D01*
X107877360Y-49326000D01*
X107890060Y-49290440D01*
X107897680Y-49262500D01*
X107902760Y-49234560D01*
X107905300Y-49204080D01*
X107905300Y-49163440D01*
X107905300Y-49135500D01*
X107905300Y-49709540D01*
X107869740Y-49762880D01*
X107780840Y-49869560D01*
X107681780Y-49966080D01*
X107575100Y-50054980D01*
X107465880Y-50131180D01*
X107376980Y-50179440D01*
X107318560Y-50207380D01*
X107252520Y-50230240D01*
X107181400Y-50253100D01*
X107117900Y-50268340D01*
X107077260Y-50273420D01*
X106983280Y-50278500D01*
X106894380Y-50268340D01*
X106813100Y-50245480D01*
X106739440Y-50209920D01*
X106675940Y-50161660D01*
X106658160Y-50146420D01*
X106650540Y-50141340D01*
X106648000Y-50141340D01*
X106653080Y-50151500D01*
X106665780Y-50171820D01*
X106683560Y-50199760D01*
X106708960Y-50235320D01*
X106726740Y-50263260D01*
X106782620Y-50347080D01*
X106825800Y-50420740D01*
X106858820Y-50486780D01*
X106884220Y-50552820D01*
X106904540Y-50616320D01*
X106917240Y-50682360D01*
X106919780Y-50710300D01*
X106924860Y-50809360D01*
X106912160Y-50913500D01*
X106889300Y-51017640D01*
X106851200Y-51121780D01*
X106802940Y-51218300D01*
X106741980Y-51307200D01*
X106734360Y-51317360D01*
X106716580Y-51337680D01*
X106716580Y-50789040D01*
X106714040Y-50733160D01*
X106708960Y-50684900D01*
X106696260Y-50636640D01*
X106681020Y-50588380D01*
X106655620Y-50537580D01*
X106622600Y-50479160D01*
X106581960Y-50413120D01*
X106548940Y-50362320D01*
X106500680Y-50293740D01*
X106465120Y-50232780D01*
X106437180Y-50179440D01*
X106416860Y-50131180D01*
X106401620Y-50085460D01*
X106399080Y-50067680D01*
X106391460Y-50019420D01*
X106386380Y-49973700D01*
X106388920Y-49927980D01*
X106394000Y-49872100D01*
X106406700Y-49806060D01*
X106406700Y-49798440D01*
X106419400Y-49732400D01*
X106424480Y-49676520D01*
X106424480Y-49628260D01*
X106414320Y-49587620D01*
X106401620Y-49544440D01*
X106394000Y-49531740D01*
X106358440Y-49473320D01*
X106310180Y-49425060D01*
X106254300Y-49392040D01*
X106190800Y-49374260D01*
X106122220Y-49371720D01*
X106076500Y-49376800D01*
X106046020Y-49384420D01*
X106005380Y-49399660D01*
X105954580Y-49419980D01*
X105901240Y-49445380D01*
X105832660Y-49475860D01*
X105776780Y-49498720D01*
X105725980Y-49508880D01*
X105682800Y-49511420D01*
X105642160Y-49503800D01*
X105601520Y-49488560D01*
X105560880Y-49460620D01*
X105553260Y-49458080D01*
X105505000Y-49422520D01*
X105464360Y-49399660D01*
X105426260Y-49384420D01*
X105390700Y-49376800D01*
X105350060Y-49374260D01*
X105332280Y-49374260D01*
X105289100Y-49374260D01*
X105256080Y-49379340D01*
X105225600Y-49386960D01*
X105202740Y-49394580D01*
X105124000Y-49432680D01*
X105055420Y-49478400D01*
X104997000Y-49531740D01*
X104941120Y-49592700D01*
X104895400Y-49663820D01*
X104859840Y-49742560D01*
X104839520Y-49795900D01*
X104816660Y-49861940D01*
X104791260Y-49920360D01*
X104763320Y-49976240D01*
X104730300Y-50029580D01*
X104692200Y-50082920D01*
X104646480Y-50136260D01*
X104618540Y-50161660D01*
X104618540Y-49427600D01*
X104618540Y-49376800D01*
X104616000Y-49338700D01*
X104613460Y-49305680D01*
X104608380Y-49277740D01*
X104600760Y-49249800D01*
X104595680Y-49229480D01*
X104567740Y-49148200D01*
X104534720Y-49082160D01*
X104491540Y-49021200D01*
X104445820Y-48970400D01*
X104428040Y-48955160D01*
X104428040Y-48127120D01*
X104428040Y-48089020D01*
X104428040Y-48061080D01*
X104425500Y-48050920D01*
X104420420Y-48017900D01*
X104387400Y-48056000D01*
X104351840Y-48096640D01*
X104316280Y-48149980D01*
X104275640Y-48210940D01*
X104237540Y-48271900D01*
X104201980Y-48335400D01*
X104176580Y-48388740D01*
X104158800Y-48424300D01*
X104141020Y-48464940D01*
X104123240Y-48513200D01*
X104105460Y-48558920D01*
X104090220Y-48602100D01*
X104077520Y-48640200D01*
X104067360Y-48668140D01*
X104064820Y-48680840D01*
X104072440Y-48683380D01*
X104095300Y-48683380D01*
X104125780Y-48685920D01*
X104151180Y-48683380D01*
X104209600Y-48683380D01*
X104252780Y-48688460D01*
X104278180Y-48693540D01*
X104316280Y-48703700D01*
X104328980Y-48673220D01*
X104339140Y-48652900D01*
X104351840Y-48619880D01*
X104364540Y-48584320D01*
X104364540Y-48576700D01*
X104387400Y-48508120D01*
X104405180Y-48442080D01*
X104415340Y-48376040D01*
X104422960Y-48302380D01*
X104428040Y-48223640D01*
X104428040Y-48175380D01*
X104428040Y-48127120D01*
X104428040Y-48955160D01*
X104384860Y-48914520D01*
X104321360Y-48873880D01*
X104252780Y-48848480D01*
X104179120Y-48835780D01*
X104133400Y-48835780D01*
X104047040Y-48843400D01*
X103965760Y-48866260D01*
X103892100Y-48906900D01*
X103823520Y-48960240D01*
X103760020Y-49028820D01*
X103706680Y-49110100D01*
X103678740Y-49160900D01*
X103653340Y-49219320D01*
X103635560Y-49270120D01*
X103622860Y-49320920D01*
X103615240Y-49374260D01*
X103612700Y-49437760D01*
X103612700Y-49478400D01*
X103612700Y-49531740D01*
X103615240Y-49572380D01*
X103617780Y-49605400D01*
X103622860Y-49635880D01*
X103630480Y-49666360D01*
X103633020Y-49668900D01*
X103666040Y-49762880D01*
X103711760Y-49846700D01*
X103767640Y-49917820D01*
X103831140Y-49978780D01*
X103902260Y-50024500D01*
X103963220Y-50052440D01*
X104019100Y-50065140D01*
X104082600Y-50070220D01*
X104148640Y-50067680D01*
X104204520Y-50060060D01*
X104209600Y-50057520D01*
X104293420Y-50024500D01*
X104372160Y-49976240D01*
X104440740Y-49912740D01*
X104499160Y-49839080D01*
X104549960Y-49752720D01*
X104588060Y-49658740D01*
X104600760Y-49618100D01*
X104608380Y-49585080D01*
X104613460Y-49552060D01*
X104616000Y-49516500D01*
X104618540Y-49468240D01*
X104618540Y-49427600D01*
X104618540Y-50161660D01*
X104590600Y-50192140D01*
X104524560Y-50253100D01*
X104448360Y-50321680D01*
X104392480Y-50367400D01*
X104308660Y-50438520D01*
X104240080Y-50499480D01*
X104179120Y-50555360D01*
X104130860Y-50606160D01*
X104087680Y-50651880D01*
X104054660Y-50697600D01*
X104024180Y-50743320D01*
X103996240Y-50791580D01*
X103991160Y-50804280D01*
X103958140Y-50872860D01*
X103937820Y-50933820D01*
X103925120Y-50994780D01*
X103917500Y-51058280D01*
X103917500Y-51091300D01*
X103917500Y-51134480D01*
X103920040Y-51164960D01*
X103922580Y-51187820D01*
X103930200Y-51208140D01*
X103940360Y-51233540D01*
X103942900Y-51241160D01*
X103960680Y-51274180D01*
X103981000Y-51304660D01*
X103996240Y-51324980D01*
X104024180Y-51350380D01*
X104062280Y-51375780D01*
X104105460Y-51398640D01*
X104146100Y-51413880D01*
X104156260Y-51416420D01*
X104191820Y-51421500D01*
X104237540Y-51424040D01*
X104290880Y-51424040D01*
X104341680Y-51421500D01*
X104387400Y-51416420D01*
X104405180Y-51413880D01*
X104430580Y-51403720D01*
X104468680Y-51391020D01*
X104514400Y-51370700D01*
X104560120Y-51350380D01*
X104585520Y-51337680D01*
X104643940Y-51309740D01*
X104692200Y-51286880D01*
X104730300Y-51274180D01*
X104763320Y-51264020D01*
X104791260Y-51256400D01*
X104824280Y-51253860D01*
X104849680Y-51253860D01*
X104892860Y-51256400D01*
X104928420Y-51264020D01*
X104961440Y-51281800D01*
X104997000Y-51307200D01*
X105022400Y-51327520D01*
X105063040Y-51363080D01*
X105096060Y-51383400D01*
X105129080Y-51396100D01*
X105167180Y-51403720D01*
X105192580Y-51403720D01*
X105233220Y-51401180D01*
X105273860Y-51391020D01*
X105317040Y-51375780D01*
X105365300Y-51350380D01*
X105398320Y-51330060D01*
X105454200Y-51297040D01*
X105499920Y-51276720D01*
X105540560Y-51261480D01*
X105581200Y-51256400D01*
X105611680Y-51253860D01*
X105652320Y-51256400D01*
X105687880Y-51261480D01*
X105723440Y-51271640D01*
X105761540Y-51289420D01*
X105804720Y-51317360D01*
X105827580Y-51332600D01*
X105886000Y-51370700D01*
X105936800Y-51396100D01*
X105985060Y-51413880D01*
X106035860Y-51421500D01*
X106091740Y-51426580D01*
X106101900Y-51426580D01*
X106198420Y-51418960D01*
X106289860Y-51393560D01*
X106376220Y-51358000D01*
X106454960Y-51307200D01*
X106526080Y-51246240D01*
X106589580Y-51172580D01*
X106640380Y-51093840D01*
X106678480Y-51004940D01*
X106703880Y-50910960D01*
X106716580Y-50811900D01*
X106716580Y-50789040D01*
X106716580Y-51337680D01*
X106653080Y-51406260D01*
X106561640Y-51482460D01*
X106462580Y-51543420D01*
X106353360Y-51589140D01*
X106241600Y-51619620D01*
X106203500Y-51627240D01*
X106099360Y-51634860D01*
X105997760Y-51627240D01*
X105901240Y-51601840D01*
X105807260Y-51561200D01*
X105715820Y-51505320D01*
X105713280Y-51502780D01*
X105670100Y-51474840D01*
X105634540Y-51459600D01*
X105601520Y-51459600D01*
X105563420Y-51469760D01*
X105522780Y-51495160D01*
X105520240Y-51495160D01*
X105449120Y-51538340D01*
X105385620Y-51568820D01*
X105327200Y-51589140D01*
X105266240Y-51601840D01*
X105205280Y-51606920D01*
X105192580Y-51606920D01*
X105141780Y-51606920D01*
X105103680Y-51601840D01*
X105065580Y-51591680D01*
X105052880Y-51589140D01*
X105012240Y-51568820D01*
X104966520Y-51543420D01*
X104923340Y-51512940D01*
X104887780Y-51482460D01*
X104882700Y-51477380D01*
X104867460Y-51464680D01*
X104847140Y-51459600D01*
X104821740Y-51462140D01*
X104788720Y-51472300D01*
X104745540Y-51490080D01*
X104694740Y-51512940D01*
X104621080Y-51548500D01*
X104560120Y-51576440D01*
X104504240Y-51596760D01*
X104453440Y-51612000D01*
X104400100Y-51622160D01*
X104379780Y-51624700D01*
X104326440Y-51632320D01*
X104283260Y-51634860D01*
X104245160Y-51634860D01*
X104201980Y-51629780D01*
X104179120Y-51627240D01*
X104082600Y-51606920D01*
X103996240Y-51571360D01*
X103917500Y-51523100D01*
X103851460Y-51464680D01*
X103798120Y-51396100D01*
X103754940Y-51317360D01*
X103727000Y-51233540D01*
X103711760Y-51139560D01*
X103711760Y-51043040D01*
X103724460Y-50954140D01*
X103749860Y-50850000D01*
X103787960Y-50750940D01*
X103838760Y-50654420D01*
X103899720Y-50562980D01*
X103975920Y-50469000D01*
X104067360Y-50377560D01*
X104115620Y-50329300D01*
X104179120Y-50273420D01*
X104135940Y-50278500D01*
X104080060Y-50281040D01*
X104014020Y-50273420D01*
X103942900Y-50258180D01*
X103874320Y-50235320D01*
X103808280Y-50207380D01*
X103772720Y-50189600D01*
X103729540Y-50159120D01*
X103683820Y-50121020D01*
X103635560Y-50075300D01*
X103592380Y-50029580D01*
X103561900Y-49991480D01*
X103503480Y-49897500D01*
X103457760Y-49793360D01*
X103424740Y-49676520D01*
X103417120Y-49646040D01*
X103406960Y-49587620D01*
X103401880Y-49519040D01*
X103401880Y-49445380D01*
X103404420Y-49374260D01*
X103412040Y-49310760D01*
X103417120Y-49287900D01*
X103450140Y-49176140D01*
X103493320Y-49066920D01*
X103551740Y-48967860D01*
X103617780Y-48878960D01*
X103696520Y-48800220D01*
X103780340Y-48734180D01*
X103810820Y-48716400D01*
X103836220Y-48698620D01*
X103854000Y-48685920D01*
X103861620Y-48670680D01*
X103869240Y-48647820D01*
X103869240Y-48637660D01*
X103897180Y-48533520D01*
X103937820Y-48424300D01*
X103986080Y-48310000D01*
X104047040Y-48195700D01*
X104113080Y-48083940D01*
X104186740Y-47979800D01*
X104229920Y-47923920D01*
X104273100Y-47875660D01*
X104313740Y-47842640D01*
X104354380Y-47822320D01*
X104397560Y-47812160D01*
X104420420Y-47809620D01*
X104476300Y-47817240D01*
X104527100Y-47840100D01*
X104567740Y-47873120D01*
X104600760Y-47916300D01*
X104616000Y-47954400D01*
X104621080Y-47974720D01*
X104626160Y-48007740D01*
X104631240Y-48048380D01*
X104633780Y-48078860D01*
X104638860Y-48198240D01*
X104628700Y-48322700D01*
X104608380Y-48452240D01*
X104577900Y-48584320D01*
X104549960Y-48665600D01*
X104519480Y-48754500D01*
X104570280Y-48800220D01*
X104643940Y-48884040D01*
X104707440Y-48975480D01*
X104758240Y-49077080D01*
X104796340Y-49186300D01*
X104819200Y-49300600D01*
X104824280Y-49338700D01*
X104829360Y-49402200D01*
X104877620Y-49361560D01*
X104961440Y-49295520D01*
X105045260Y-49244720D01*
X105129080Y-49206620D01*
X105202740Y-49181220D01*
X105296720Y-49165980D01*
X105388160Y-49168520D01*
X105477060Y-49186300D01*
X105560880Y-49221860D01*
X105644700Y-49272660D01*
X105647240Y-49275200D01*
X105672640Y-49292980D01*
X105692960Y-49305680D01*
X105703120Y-49308220D01*
X105713280Y-49305680D01*
X105736140Y-49295520D01*
X105769160Y-49282820D01*
X105807260Y-49265040D01*
X105819960Y-49257420D01*
X105913940Y-49216780D01*
X106002840Y-49188840D01*
X106081580Y-49171060D01*
X106152700Y-49165980D01*
X106241600Y-49173600D01*
X106325420Y-49196460D01*
X106401620Y-49234560D01*
X106467660Y-49290440D01*
X106528620Y-49356480D01*
X106543860Y-49381880D01*
X106587040Y-49442840D01*
X106612440Y-49386960D01*
X106681020Y-49267580D01*
X106759760Y-49153280D01*
X106848660Y-49044060D01*
X106945180Y-48945000D01*
X107049320Y-48856100D01*
X107156000Y-48782440D01*
X107222040Y-48741800D01*
X107305860Y-48698620D01*
X107323640Y-48607180D01*
X107349040Y-48495420D01*
X107384600Y-48376040D01*
X107427780Y-48254120D01*
X107448100Y-48203320D01*
X107491280Y-48101720D01*
X107537000Y-48015360D01*
X107585260Y-47944240D01*
X107636060Y-47888360D01*
X107686860Y-47845180D01*
X107737660Y-47819780D01*
X107785920Y-47809620D01*
X107836720Y-47817240D01*
X107864660Y-47827400D01*
X107892600Y-47845180D01*
X107918000Y-47865500D01*
X107923080Y-47873120D01*
X107958640Y-47923920D01*
X107986580Y-47989960D01*
X108006900Y-48066160D01*
X108022140Y-48152520D01*
X108032300Y-48243960D01*
X108034840Y-48343020D01*
X108029760Y-48444620D01*
X108017060Y-48546220D01*
X107996740Y-48645280D01*
X107994200Y-48655440D01*
X107971340Y-48754500D01*
X108004360Y-48790060D01*
X108032300Y-48828160D01*
X108057700Y-48873880D01*
X108083100Y-48927220D01*
X108100880Y-48980560D01*
X108105960Y-48995800D01*
X108111040Y-49036440D01*
X108113580Y-49087240D01*
X108116120Y-49143120D01*
X108116120Y-49143120D01*
X108116120Y-49143120D01*
G37*
X108116120Y-49143120D02*
X108111040Y-49201540D01*
X108105960Y-49252340D01*
X108100880Y-49280280D01*
X108093260Y-49315840D01*
X108080560Y-49359020D01*
X108065320Y-49404740D01*
X108062780Y-49414900D01*
X108011980Y-49531740D01*
X107945940Y-49648580D01*
X107905300Y-49709540D01*
X107905300Y-49135500D01*
X107905300Y-49087240D01*
X107902760Y-49054220D01*
X107900220Y-49028820D01*
X107895140Y-49008500D01*
X107890060Y-48988180D01*
X107884980Y-48983100D01*
X107851960Y-48927220D01*
X107831640Y-48906900D01*
X107831640Y-48297300D01*
X107829100Y-48274440D01*
X107826560Y-48231260D01*
X107818940Y-48185540D01*
X107811320Y-48139820D01*
X107803700Y-48099180D01*
X107796080Y-48063620D01*
X107788460Y-48038220D01*
X107783380Y-48028060D01*
X107775760Y-48030600D01*
X107763060Y-48045840D01*
X107742740Y-48073780D01*
X107722420Y-48109340D01*
X107697020Y-48152520D01*
X107671620Y-48200780D01*
X107648760Y-48251580D01*
X107623360Y-48302380D01*
X107603040Y-48353180D01*
X107585260Y-48398900D01*
X107585260Y-48401440D01*
X107564940Y-48464940D01*
X107547160Y-48533520D01*
X107529380Y-48612260D01*
X107516680Y-48678300D01*
X107511600Y-48706240D01*
X107557320Y-48693540D01*
X107585260Y-48688460D01*
X107623360Y-48685920D01*
X107666540Y-48683380D01*
X107689400Y-48683380D01*
X107780840Y-48683380D01*
X107798620Y-48602100D01*
X107818940Y-48495420D01*
X107829100Y-48393820D01*
X107831640Y-48297300D01*
X107831640Y-48906900D01*
X107806240Y-48884040D01*
X107770680Y-48861180D01*
X107724960Y-48845940D01*
X107666540Y-48835780D01*
X107605580Y-48835780D01*
X107539540Y-48840860D01*
X107498900Y-48851020D01*
X107397300Y-48886580D01*
X107298240Y-48934840D01*
X107204260Y-48998340D01*
X107110280Y-49069460D01*
X107026460Y-49153280D01*
X106947720Y-49242180D01*
X106876600Y-49336160D01*
X106818180Y-49435220D01*
X106772460Y-49536820D01*
X106739440Y-49638420D01*
X106724200Y-49717160D01*
X106721660Y-49793360D01*
X106729280Y-49864480D01*
X106752140Y-49927980D01*
X106785160Y-49981320D01*
X106825800Y-50021960D01*
X106879140Y-50052440D01*
X106891840Y-50057520D01*
X106937560Y-50067680D01*
X106993440Y-50070220D01*
X107054400Y-50067680D01*
X107112820Y-50060060D01*
X107138220Y-50054980D01*
X107239820Y-50019420D01*
X107338880Y-49968620D01*
X107435400Y-49905120D01*
X107529380Y-49828920D01*
X107615740Y-49745100D01*
X107697020Y-49651120D01*
X107765600Y-49552060D01*
X107826560Y-49447920D01*
X107872280Y-49341240D01*
X107877360Y-49326000D01*
X107890060Y-49290440D01*
X107897680Y-49262500D01*
X107902760Y-49234560D01*
X107905300Y-49204080D01*
X107905300Y-49163440D01*
X107905300Y-49135500D01*
X107905300Y-49709540D01*
X107869740Y-49762880D01*
X107780840Y-49869560D01*
X107681780Y-49966080D01*
X107575100Y-50054980D01*
X107465880Y-50131180D01*
X107376980Y-50179440D01*
X107318560Y-50207380D01*
X107252520Y-50230240D01*
X107181400Y-50253100D01*
X107117900Y-50268340D01*
X107077260Y-50273420D01*
X106983280Y-50278500D01*
X106894380Y-50268340D01*
X106813100Y-50245480D01*
X106739440Y-50209920D01*
X106675940Y-50161660D01*
X106658160Y-50146420D01*
X106650540Y-50141340D01*
X106648000Y-50141340D01*
X106653080Y-50151500D01*
X106665780Y-50171820D01*
X106683560Y-50199760D01*
X106708960Y-50235320D01*
X106726740Y-50263260D01*
X106782620Y-50347080D01*
X106825800Y-50420740D01*
X106858820Y-50486780D01*
X106884220Y-50552820D01*
X106904540Y-50616320D01*
X106917240Y-50682360D01*
X106919780Y-50710300D01*
X106924860Y-50809360D01*
X106912160Y-50913500D01*
X106889300Y-51017640D01*
X106851200Y-51121780D01*
X106802940Y-51218300D01*
X106741980Y-51307200D01*
X106734360Y-51317360D01*
X106716580Y-51337680D01*
X106716580Y-50789040D01*
X106714040Y-50733160D01*
X106708960Y-50684900D01*
X106696260Y-50636640D01*
X106681020Y-50588380D01*
X106655620Y-50537580D01*
X106622600Y-50479160D01*
X106581960Y-50413120D01*
X106548940Y-50362320D01*
X106500680Y-50293740D01*
X106465120Y-50232780D01*
X106437180Y-50179440D01*
X106416860Y-50131180D01*
X106401620Y-50085460D01*
X106399080Y-50067680D01*
X106391460Y-50019420D01*
X106386380Y-49973700D01*
X106388920Y-49927980D01*
X106394000Y-49872100D01*
X106406700Y-49806060D01*
X106406700Y-49798440D01*
X106419400Y-49732400D01*
X106424480Y-49676520D01*
X106424480Y-49628260D01*
X106414320Y-49587620D01*
X106401620Y-49544440D01*
X106394000Y-49531740D01*
X106358440Y-49473320D01*
X106310180Y-49425060D01*
X106254300Y-49392040D01*
X106190800Y-49374260D01*
X106122220Y-49371720D01*
X106076500Y-49376800D01*
X106046020Y-49384420D01*
X106005380Y-49399660D01*
X105954580Y-49419980D01*
X105901240Y-49445380D01*
X105832660Y-49475860D01*
X105776780Y-49498720D01*
X105725980Y-49508880D01*
X105682800Y-49511420D01*
X105642160Y-49503800D01*
X105601520Y-49488560D01*
X105560880Y-49460620D01*
X105553260Y-49458080D01*
X105505000Y-49422520D01*
X105464360Y-49399660D01*
X105426260Y-49384420D01*
X105390700Y-49376800D01*
X105350060Y-49374260D01*
X105332280Y-49374260D01*
X105289100Y-49374260D01*
X105256080Y-49379340D01*
X105225600Y-49386960D01*
X105202740Y-49394580D01*
X105124000Y-49432680D01*
X105055420Y-49478400D01*
X104997000Y-49531740D01*
X104941120Y-49592700D01*
X104895400Y-49663820D01*
X104859840Y-49742560D01*
X104839520Y-49795900D01*
X104816660Y-49861940D01*
X104791260Y-49920360D01*
X104763320Y-49976240D01*
X104730300Y-50029580D01*
X104692200Y-50082920D01*
X104646480Y-50136260D01*
X104618540Y-50161660D01*
X104618540Y-49427600D01*
X104618540Y-49376800D01*
X104616000Y-49338700D01*
X104613460Y-49305680D01*
X104608380Y-49277740D01*
X104600760Y-49249800D01*
X104595680Y-49229480D01*
X104567740Y-49148200D01*
X104534720Y-49082160D01*
X104491540Y-49021200D01*
X104445820Y-48970400D01*
X104428040Y-48955160D01*
X104428040Y-48127120D01*
X104428040Y-48089020D01*
X104428040Y-48061080D01*
X104425500Y-48050920D01*
X104420420Y-48017900D01*
X104387400Y-48056000D01*
X104351840Y-48096640D01*
X104316280Y-48149980D01*
X104275640Y-48210940D01*
X104237540Y-48271900D01*
X104201980Y-48335400D01*
X104176580Y-48388740D01*
X104158800Y-48424300D01*
X104141020Y-48464940D01*
X104123240Y-48513200D01*
X104105460Y-48558920D01*
X104090220Y-48602100D01*
X104077520Y-48640200D01*
X104067360Y-48668140D01*
X104064820Y-48680840D01*
X104072440Y-48683380D01*
X104095300Y-48683380D01*
X104125780Y-48685920D01*
X104151180Y-48683380D01*
X104209600Y-48683380D01*
X104252780Y-48688460D01*
X104278180Y-48693540D01*
X104316280Y-48703700D01*
X104328980Y-48673220D01*
X104339140Y-48652900D01*
X104351840Y-48619880D01*
X104364540Y-48584320D01*
X104364540Y-48576700D01*
X104387400Y-48508120D01*
X104405180Y-48442080D01*
X104415340Y-48376040D01*
X104422960Y-48302380D01*
X104428040Y-48223640D01*
X104428040Y-48175380D01*
X104428040Y-48127120D01*
X104428040Y-48955160D01*
X104384860Y-48914520D01*
X104321360Y-48873880D01*
X104252780Y-48848480D01*
X104179120Y-48835780D01*
X104133400Y-48835780D01*
X104047040Y-48843400D01*
X103965760Y-48866260D01*
X103892100Y-48906900D01*
X103823520Y-48960240D01*
X103760020Y-49028820D01*
X103706680Y-49110100D01*
X103678740Y-49160900D01*
X103653340Y-49219320D01*
X103635560Y-49270120D01*
X103622860Y-49320920D01*
X103615240Y-49374260D01*
X103612700Y-49437760D01*
X103612700Y-49478400D01*
X103612700Y-49531740D01*
X103615240Y-49572380D01*
X103617780Y-49605400D01*
X103622860Y-49635880D01*
X103630480Y-49666360D01*
X103633020Y-49668900D01*
X103666040Y-49762880D01*
X103711760Y-49846700D01*
X103767640Y-49917820D01*
X103831140Y-49978780D01*
X103902260Y-50024500D01*
X103963220Y-50052440D01*
X104019100Y-50065140D01*
X104082600Y-50070220D01*
X104148640Y-50067680D01*
X104204520Y-50060060D01*
X104209600Y-50057520D01*
X104293420Y-50024500D01*
X104372160Y-49976240D01*
X104440740Y-49912740D01*
X104499160Y-49839080D01*
X104549960Y-49752720D01*
X104588060Y-49658740D01*
X104600760Y-49618100D01*
X104608380Y-49585080D01*
X104613460Y-49552060D01*
X104616000Y-49516500D01*
X104618540Y-49468240D01*
X104618540Y-49427600D01*
X104618540Y-50161660D01*
X104590600Y-50192140D01*
X104524560Y-50253100D01*
X104448360Y-50321680D01*
X104392480Y-50367400D01*
X104308660Y-50438520D01*
X104240080Y-50499480D01*
X104179120Y-50555360D01*
X104130860Y-50606160D01*
X104087680Y-50651880D01*
X104054660Y-50697600D01*
X104024180Y-50743320D01*
X103996240Y-50791580D01*
X103991160Y-50804280D01*
X103958140Y-50872860D01*
X103937820Y-50933820D01*
X103925120Y-50994780D01*
X103917500Y-51058280D01*
X103917500Y-51091300D01*
X103917500Y-51134480D01*
X103920040Y-51164960D01*
X103922580Y-51187820D01*
X103930200Y-51208140D01*
X103940360Y-51233540D01*
X103942900Y-51241160D01*
X103960680Y-51274180D01*
X103981000Y-51304660D01*
X103996240Y-51324980D01*
X104024180Y-51350380D01*
X104062280Y-51375780D01*
X104105460Y-51398640D01*
X104146100Y-51413880D01*
X104156260Y-51416420D01*
X104191820Y-51421500D01*
X104237540Y-51424040D01*
X104290880Y-51424040D01*
X104341680Y-51421500D01*
X104387400Y-51416420D01*
X104405180Y-51413880D01*
X104430580Y-51403720D01*
X104468680Y-51391020D01*
X104514400Y-51370700D01*
X104560120Y-51350380D01*
X104585520Y-51337680D01*
X104643940Y-51309740D01*
X104692200Y-51286880D01*
X104730300Y-51274180D01*
X104763320Y-51264020D01*
X104791260Y-51256400D01*
X104824280Y-51253860D01*
X104849680Y-51253860D01*
X104892860Y-51256400D01*
X104928420Y-51264020D01*
X104961440Y-51281800D01*
X104997000Y-51307200D01*
X105022400Y-51327520D01*
X105063040Y-51363080D01*
X105096060Y-51383400D01*
X105129080Y-51396100D01*
X105167180Y-51403720D01*
X105192580Y-51403720D01*
X105233220Y-51401180D01*
X105273860Y-51391020D01*
X105317040Y-51375780D01*
X105365300Y-51350380D01*
X105398320Y-51330060D01*
X105454200Y-51297040D01*
X105499920Y-51276720D01*
X105540560Y-51261480D01*
X105581200Y-51256400D01*
X105611680Y-51253860D01*
X105652320Y-51256400D01*
X105687880Y-51261480D01*
X105723440Y-51271640D01*
X105761540Y-51289420D01*
X105804720Y-51317360D01*
X105827580Y-51332600D01*
X105886000Y-51370700D01*
X105936800Y-51396100D01*
X105985060Y-51413880D01*
X106035860Y-51421500D01*
X106091740Y-51426580D01*
X106101900Y-51426580D01*
X106198420Y-51418960D01*
X106289860Y-51393560D01*
X106376220Y-51358000D01*
X106454960Y-51307200D01*
X106526080Y-51246240D01*
X106589580Y-51172580D01*
X106640380Y-51093840D01*
X106678480Y-51004940D01*
X106703880Y-50910960D01*
X106716580Y-50811900D01*
X106716580Y-50789040D01*
X106716580Y-51337680D01*
X106653080Y-51406260D01*
X106561640Y-51482460D01*
X106462580Y-51543420D01*
X106353360Y-51589140D01*
X106241600Y-51619620D01*
X106203500Y-51627240D01*
X106099360Y-51634860D01*
X105997760Y-51627240D01*
X105901240Y-51601840D01*
X105807260Y-51561200D01*
X105715820Y-51505320D01*
X105713280Y-51502780D01*
X105670100Y-51474840D01*
X105634540Y-51459600D01*
X105601520Y-51459600D01*
X105563420Y-51469760D01*
X105522780Y-51495160D01*
X105520240Y-51495160D01*
X105449120Y-51538340D01*
X105385620Y-51568820D01*
X105327200Y-51589140D01*
X105266240Y-51601840D01*
X105205280Y-51606920D01*
X105192580Y-51606920D01*
X105141780Y-51606920D01*
X105103680Y-51601840D01*
X105065580Y-51591680D01*
X105052880Y-51589140D01*
X105012240Y-51568820D01*
X104966520Y-51543420D01*
X104923340Y-51512940D01*
X104887780Y-51482460D01*
X104882700Y-51477380D01*
X104867460Y-51464680D01*
X104847140Y-51459600D01*
X104821740Y-51462140D01*
X104788720Y-51472300D01*
X104745540Y-51490080D01*
X104694740Y-51512940D01*
X104621080Y-51548500D01*
X104560120Y-51576440D01*
X104504240Y-51596760D01*
X104453440Y-51612000D01*
X104400100Y-51622160D01*
X104379780Y-51624700D01*
X104326440Y-51632320D01*
X104283260Y-51634860D01*
X104245160Y-51634860D01*
X104201980Y-51629780D01*
X104179120Y-51627240D01*
X104082600Y-51606920D01*
X103996240Y-51571360D01*
X103917500Y-51523100D01*
X103851460Y-51464680D01*
X103798120Y-51396100D01*
X103754940Y-51317360D01*
X103727000Y-51233540D01*
X103711760Y-51139560D01*
X103711760Y-51043040D01*
X103724460Y-50954140D01*
X103749860Y-50850000D01*
X103787960Y-50750940D01*
X103838760Y-50654420D01*
X103899720Y-50562980D01*
X103975920Y-50469000D01*
X104067360Y-50377560D01*
X104115620Y-50329300D01*
X104179120Y-50273420D01*
X104135940Y-50278500D01*
X104080060Y-50281040D01*
X104014020Y-50273420D01*
X103942900Y-50258180D01*
X103874320Y-50235320D01*
X103808280Y-50207380D01*
X103772720Y-50189600D01*
X103729540Y-50159120D01*
X103683820Y-50121020D01*
X103635560Y-50075300D01*
X103592380Y-50029580D01*
X103561900Y-49991480D01*
X103503480Y-49897500D01*
X103457760Y-49793360D01*
X103424740Y-49676520D01*
X103417120Y-49646040D01*
X103406960Y-49587620D01*
X103401880Y-49519040D01*
X103401880Y-49445380D01*
X103404420Y-49374260D01*
X103412040Y-49310760D01*
X103417120Y-49287900D01*
X103450140Y-49176140D01*
X103493320Y-49066920D01*
X103551740Y-48967860D01*
X103617780Y-48878960D01*
X103696520Y-48800220D01*
X103780340Y-48734180D01*
X103810820Y-48716400D01*
X103836220Y-48698620D01*
X103854000Y-48685920D01*
X103861620Y-48670680D01*
X103869240Y-48647820D01*
X103869240Y-48637660D01*
X103897180Y-48533520D01*
X103937820Y-48424300D01*
X103986080Y-48310000D01*
X104047040Y-48195700D01*
X104113080Y-48083940D01*
X104186740Y-47979800D01*
X104229920Y-47923920D01*
X104273100Y-47875660D01*
X104313740Y-47842640D01*
X104354380Y-47822320D01*
X104397560Y-47812160D01*
X104420420Y-47809620D01*
X104476300Y-47817240D01*
X104527100Y-47840100D01*
X104567740Y-47873120D01*
X104600760Y-47916300D01*
X104616000Y-47954400D01*
X104621080Y-47974720D01*
X104626160Y-48007740D01*
X104631240Y-48048380D01*
X104633780Y-48078860D01*
X104638860Y-48198240D01*
X104628700Y-48322700D01*
X104608380Y-48452240D01*
X104577900Y-48584320D01*
X104549960Y-48665600D01*
X104519480Y-48754500D01*
X104570280Y-48800220D01*
X104643940Y-48884040D01*
X104707440Y-48975480D01*
X104758240Y-49077080D01*
X104796340Y-49186300D01*
X104819200Y-49300600D01*
X104824280Y-49338700D01*
X104829360Y-49402200D01*
X104877620Y-49361560D01*
X104961440Y-49295520D01*
X105045260Y-49244720D01*
X105129080Y-49206620D01*
X105202740Y-49181220D01*
X105296720Y-49165980D01*
X105388160Y-49168520D01*
X105477060Y-49186300D01*
X105560880Y-49221860D01*
X105644700Y-49272660D01*
X105647240Y-49275200D01*
X105672640Y-49292980D01*
X105692960Y-49305680D01*
X105703120Y-49308220D01*
X105713280Y-49305680D01*
X105736140Y-49295520D01*
X105769160Y-49282820D01*
X105807260Y-49265040D01*
X105819960Y-49257420D01*
X105913940Y-49216780D01*
X106002840Y-49188840D01*
X106081580Y-49171060D01*
X106152700Y-49165980D01*
X106241600Y-49173600D01*
X106325420Y-49196460D01*
X106401620Y-49234560D01*
X106467660Y-49290440D01*
X106528620Y-49356480D01*
X106543860Y-49381880D01*
X106587040Y-49442840D01*
X106612440Y-49386960D01*
X106681020Y-49267580D01*
X106759760Y-49153280D01*
X106848660Y-49044060D01*
X106945180Y-48945000D01*
X107049320Y-48856100D01*
X107156000Y-48782440D01*
X107222040Y-48741800D01*
X107305860Y-48698620D01*
X107323640Y-48607180D01*
X107349040Y-48495420D01*
X107384600Y-48376040D01*
X107427780Y-48254120D01*
X107448100Y-48203320D01*
X107491280Y-48101720D01*
X107537000Y-48015360D01*
X107585260Y-47944240D01*
X107636060Y-47888360D01*
X107686860Y-47845180D01*
X107737660Y-47819780D01*
X107785920Y-47809620D01*
X107836720Y-47817240D01*
X107864660Y-47827400D01*
X107892600Y-47845180D01*
X107918000Y-47865500D01*
X107923080Y-47873120D01*
X107958640Y-47923920D01*
X107986580Y-47989960D01*
X108006900Y-48066160D01*
X108022140Y-48152520D01*
X108032300Y-48243960D01*
X108034840Y-48343020D01*
X108029760Y-48444620D01*
X108017060Y-48546220D01*
X107996740Y-48645280D01*
X107994200Y-48655440D01*
X107971340Y-48754500D01*
X108004360Y-48790060D01*
X108032300Y-48828160D01*
X108057700Y-48873880D01*
X108083100Y-48927220D01*
X108100880Y-48980560D01*
X108105960Y-48995800D01*
X108111040Y-49036440D01*
X108113580Y-49087240D01*
X108116120Y-49143120D01*
X108116120Y-49143120D01*
G36*
X107427780Y-47934080D02*
X107420160Y-48056000D01*
X107397300Y-48183000D01*
X107371900Y-48279520D01*
X107323640Y-48406520D01*
X107265220Y-48525900D01*
X107219500Y-48599560D01*
X107219500Y-47921380D01*
X107214420Y-47847720D01*
X107201720Y-47784220D01*
X107199180Y-47781680D01*
X107171240Y-47702940D01*
X107135680Y-47631820D01*
X107120440Y-47608960D01*
X107120440Y-46948560D01*
X107117900Y-46892680D01*
X107115360Y-46841880D01*
X107112820Y-46798700D01*
X107107740Y-46765680D01*
X107100120Y-46745360D01*
X107097580Y-46740280D01*
X107087420Y-46742820D01*
X107072180Y-46760600D01*
X107051860Y-46788540D01*
X107029000Y-46824100D01*
X107001060Y-46867280D01*
X106973120Y-46913000D01*
X106945180Y-46963800D01*
X106919780Y-47012060D01*
X106896920Y-47060320D01*
X106886760Y-47080640D01*
X106871520Y-47113660D01*
X106856280Y-47156840D01*
X106841040Y-47202560D01*
X106825800Y-47245740D01*
X106813100Y-47286380D01*
X106805480Y-47319400D01*
X106800400Y-47339720D01*
X106800400Y-47342260D01*
X106805480Y-47349880D01*
X106813100Y-47349880D01*
X106828340Y-47344800D01*
X106853740Y-47339720D01*
X106881680Y-47334640D01*
X106935020Y-47329560D01*
X106993440Y-47334640D01*
X107044240Y-47347340D01*
X107046780Y-47349880D01*
X107056940Y-47347340D01*
X107064560Y-47334640D01*
X107074720Y-47311780D01*
X107084880Y-47276220D01*
X107097580Y-47225420D01*
X107102660Y-47200020D01*
X107110280Y-47161920D01*
X107115360Y-47116200D01*
X107117900Y-47062860D01*
X107120440Y-47006980D01*
X107120440Y-46948560D01*
X107120440Y-47608960D01*
X107092500Y-47570860D01*
X107046780Y-47520060D01*
X106993440Y-47487040D01*
X106990900Y-47484500D01*
X106940100Y-47466720D01*
X106886760Y-47464180D01*
X106828340Y-47474340D01*
X106762300Y-47499740D01*
X106691180Y-47540380D01*
X106670860Y-47553080D01*
X106607360Y-47603880D01*
X106538780Y-47664840D01*
X106472740Y-47735960D01*
X106409240Y-47812160D01*
X106353360Y-47888360D01*
X106307640Y-47964560D01*
X106300020Y-47982340D01*
X106259380Y-48078860D01*
X106226360Y-48188080D01*
X106206040Y-48299840D01*
X106198420Y-48414140D01*
X106198420Y-48419220D01*
X106206040Y-48513200D01*
X106221280Y-48599560D01*
X106249220Y-48670680D01*
X106287320Y-48734180D01*
X106333040Y-48782440D01*
X106388920Y-48818000D01*
X106452420Y-48840860D01*
X106526080Y-48848480D01*
X106551480Y-48848480D01*
X106594660Y-48843400D01*
X106637840Y-48833240D01*
X106668320Y-48823080D01*
X106731820Y-48795140D01*
X106792780Y-48762120D01*
X106851200Y-48716400D01*
X106886760Y-48683380D01*
X106975660Y-48589400D01*
X107051860Y-48482720D01*
X107117900Y-48365880D01*
X107168700Y-48238880D01*
X107199180Y-48139820D01*
X107211880Y-48073780D01*
X107219500Y-47997580D01*
X107219500Y-47921380D01*
X107219500Y-48599560D01*
X107199180Y-48635120D01*
X107122980Y-48734180D01*
X107041700Y-48823080D01*
X106952800Y-48896740D01*
X106858820Y-48960240D01*
X106762300Y-49005960D01*
X106660700Y-49038980D01*
X106645460Y-49041520D01*
X106551480Y-49054220D01*
X106457500Y-49049140D01*
X106371140Y-49031360D01*
X106289860Y-48995800D01*
X106216200Y-48947540D01*
X106173020Y-48911980D01*
X106117140Y-48848480D01*
X106073960Y-48777360D01*
X106040940Y-48698620D01*
X106015540Y-48607180D01*
X106005380Y-48561460D01*
X105990140Y-48477640D01*
X105957120Y-48538600D01*
X105919020Y-48599560D01*
X105919020Y-47916300D01*
X105908860Y-47824860D01*
X105898700Y-47781680D01*
X105873300Y-47705480D01*
X105837740Y-47636900D01*
X105817420Y-47606420D01*
X105817420Y-46963800D01*
X105817420Y-46910460D01*
X105814880Y-46859660D01*
X105812340Y-46813940D01*
X105807260Y-46775840D01*
X105802180Y-46750440D01*
X105794560Y-46735200D01*
X105792020Y-46735200D01*
X105784400Y-46742820D01*
X105769160Y-46760600D01*
X105748840Y-46791080D01*
X105725980Y-46826640D01*
X105698040Y-46867280D01*
X105672640Y-46913000D01*
X105647240Y-46956180D01*
X105624380Y-46996820D01*
X105619300Y-47009520D01*
X105588820Y-47070480D01*
X105563420Y-47136520D01*
X105538020Y-47205100D01*
X105515160Y-47266060D01*
X105502460Y-47321940D01*
X105499920Y-47327020D01*
X105497380Y-47344800D01*
X105499920Y-47352420D01*
X105507540Y-47349880D01*
X105522780Y-47344800D01*
X105550720Y-47339720D01*
X105576120Y-47334640D01*
X105619300Y-47329560D01*
X105654860Y-47329560D01*
X105685340Y-47334640D01*
X105713280Y-47342260D01*
X105738680Y-47344800D01*
X105748840Y-47347340D01*
X105759000Y-47339720D01*
X105769160Y-47316860D01*
X105779320Y-47281300D01*
X105792020Y-47233040D01*
X105802180Y-47174620D01*
X105807260Y-47156840D01*
X105812340Y-47116200D01*
X105814880Y-47070480D01*
X105817420Y-47019680D01*
X105817420Y-46963800D01*
X105817420Y-47606420D01*
X105797100Y-47575940D01*
X105748840Y-47527680D01*
X105698040Y-47489580D01*
X105685340Y-47484500D01*
X105657400Y-47471800D01*
X105634540Y-47464180D01*
X105606600Y-47464180D01*
X105583740Y-47464180D01*
X105545640Y-47471800D01*
X105507540Y-47479420D01*
X105484680Y-47487040D01*
X105431340Y-47514980D01*
X105375460Y-47553080D01*
X105314500Y-47596260D01*
X105258620Y-47644520D01*
X105225600Y-47675000D01*
X105134160Y-47774060D01*
X105057960Y-47880740D01*
X104994460Y-47995040D01*
X104946200Y-48109340D01*
X104915720Y-48228720D01*
X104897940Y-48350640D01*
X104897940Y-48449700D01*
X104908100Y-48543680D01*
X104928420Y-48627500D01*
X104961440Y-48696080D01*
X105002080Y-48754500D01*
X105052880Y-48800220D01*
X105113840Y-48830700D01*
X105141780Y-48838320D01*
X105187500Y-48848480D01*
X105228140Y-48851020D01*
X105276400Y-48845940D01*
X105299260Y-48843400D01*
X105329740Y-48833240D01*
X105370380Y-48820540D01*
X105408480Y-48805300D01*
X105416100Y-48802760D01*
X105499920Y-48751960D01*
X105581200Y-48688460D01*
X105657400Y-48612260D01*
X105725980Y-48520820D01*
X105786940Y-48419220D01*
X105840280Y-48310000D01*
X105875840Y-48210940D01*
X105901240Y-48114420D01*
X105916480Y-48012820D01*
X105919020Y-47916300D01*
X105919020Y-48599560D01*
X105891080Y-48645280D01*
X105814880Y-48741800D01*
X105731060Y-48828160D01*
X105644700Y-48901820D01*
X105550720Y-48962780D01*
X105454200Y-49008500D01*
X105395780Y-49028820D01*
X105350060Y-49038980D01*
X105299260Y-49046600D01*
X105245920Y-49051680D01*
X105192580Y-49051680D01*
X105149400Y-49049140D01*
X105129080Y-49046600D01*
X105035100Y-49018660D01*
X104953820Y-48978020D01*
X104882700Y-48922140D01*
X104821740Y-48856100D01*
X104770940Y-48774820D01*
X104732840Y-48683380D01*
X104704900Y-48581780D01*
X104704900Y-48576700D01*
X104697280Y-48520820D01*
X104694740Y-48452240D01*
X104694740Y-48381120D01*
X104697280Y-48307460D01*
X104704900Y-48236340D01*
X104715060Y-48175380D01*
X104717600Y-48172840D01*
X104758240Y-48030600D01*
X104811580Y-47895980D01*
X104882700Y-47771520D01*
X104918260Y-47718180D01*
X104953820Y-47669920D01*
X104999540Y-47619120D01*
X105047800Y-47565780D01*
X105101140Y-47512440D01*
X105151940Y-47464180D01*
X105197660Y-47426080D01*
X105230680Y-47400680D01*
X105263700Y-47377820D01*
X105281480Y-47360040D01*
X105291640Y-47347340D01*
X105294180Y-47337180D01*
X105296720Y-47311780D01*
X105304340Y-47268600D01*
X105319580Y-47215260D01*
X105339900Y-47149220D01*
X105350060Y-47121280D01*
X105378000Y-47047620D01*
X105413560Y-46966340D01*
X105454200Y-46882520D01*
X105499920Y-46801240D01*
X105545640Y-46725040D01*
X105593900Y-46656460D01*
X105637080Y-46600580D01*
X105644700Y-46592960D01*
X105685340Y-46554860D01*
X105725980Y-46534540D01*
X105776780Y-46524380D01*
X105812340Y-46524380D01*
X105868220Y-46537080D01*
X105916480Y-46562480D01*
X105957120Y-46600580D01*
X105985060Y-46653920D01*
X106000300Y-46699640D01*
X106020620Y-46826640D01*
X106028240Y-46961260D01*
X106020620Y-47095880D01*
X106002840Y-47233040D01*
X105972360Y-47357500D01*
X105949500Y-47433700D01*
X105982520Y-47479420D01*
X106035860Y-47568320D01*
X106076500Y-47664840D01*
X106106980Y-47771520D01*
X106109520Y-47794380D01*
X106117140Y-47827400D01*
X106119680Y-47852800D01*
X106122220Y-47865500D01*
X106122220Y-47868040D01*
X106127300Y-47862960D01*
X106137460Y-47847720D01*
X106152700Y-47822320D01*
X106165400Y-47804540D01*
X106223820Y-47715640D01*
X106292400Y-47626740D01*
X106368600Y-47542920D01*
X106449880Y-47466720D01*
X106528620Y-47405760D01*
X106559100Y-47380360D01*
X106579420Y-47360040D01*
X106592120Y-47344800D01*
X106592120Y-47342260D01*
X106625140Y-47202560D01*
X106668320Y-47073020D01*
X106721660Y-46948560D01*
X106790240Y-46821560D01*
X106813100Y-46783460D01*
X106848660Y-46725040D01*
X106884220Y-46671700D01*
X106919780Y-46625980D01*
X106947720Y-46590420D01*
X106965500Y-46572640D01*
X107006140Y-46544700D01*
X107054400Y-46526920D01*
X107107740Y-46524380D01*
X107163620Y-46534540D01*
X107186480Y-46544700D01*
X107229660Y-46570100D01*
X107262680Y-46608200D01*
X107288080Y-46656460D01*
X107305860Y-46719960D01*
X107308400Y-46732660D01*
X107326180Y-46869820D01*
X107328720Y-47012060D01*
X107316020Y-47154300D01*
X107290620Y-47294000D01*
X107267760Y-47377820D01*
X107249980Y-47431160D01*
X107295700Y-47499740D01*
X107351580Y-47601340D01*
X107392220Y-47705480D01*
X107417620Y-47817240D01*
X107427780Y-47934080D01*
X107427780Y-47934080D01*
X107427780Y-47934080D01*
G37*
X107427780Y-47934080D02*
X107420160Y-48056000D01*
X107397300Y-48183000D01*
X107371900Y-48279520D01*
X107323640Y-48406520D01*
X107265220Y-48525900D01*
X107219500Y-48599560D01*
X107219500Y-47921380D01*
X107214420Y-47847720D01*
X107201720Y-47784220D01*
X107199180Y-47781680D01*
X107171240Y-47702940D01*
X107135680Y-47631820D01*
X107120440Y-47608960D01*
X107120440Y-46948560D01*
X107117900Y-46892680D01*
X107115360Y-46841880D01*
X107112820Y-46798700D01*
X107107740Y-46765680D01*
X107100120Y-46745360D01*
X107097580Y-46740280D01*
X107087420Y-46742820D01*
X107072180Y-46760600D01*
X107051860Y-46788540D01*
X107029000Y-46824100D01*
X107001060Y-46867280D01*
X106973120Y-46913000D01*
X106945180Y-46963800D01*
X106919780Y-47012060D01*
X106896920Y-47060320D01*
X106886760Y-47080640D01*
X106871520Y-47113660D01*
X106856280Y-47156840D01*
X106841040Y-47202560D01*
X106825800Y-47245740D01*
X106813100Y-47286380D01*
X106805480Y-47319400D01*
X106800400Y-47339720D01*
X106800400Y-47342260D01*
X106805480Y-47349880D01*
X106813100Y-47349880D01*
X106828340Y-47344800D01*
X106853740Y-47339720D01*
X106881680Y-47334640D01*
X106935020Y-47329560D01*
X106993440Y-47334640D01*
X107044240Y-47347340D01*
X107046780Y-47349880D01*
X107056940Y-47347340D01*
X107064560Y-47334640D01*
X107074720Y-47311780D01*
X107084880Y-47276220D01*
X107097580Y-47225420D01*
X107102660Y-47200020D01*
X107110280Y-47161920D01*
X107115360Y-47116200D01*
X107117900Y-47062860D01*
X107120440Y-47006980D01*
X107120440Y-46948560D01*
X107120440Y-47608960D01*
X107092500Y-47570860D01*
X107046780Y-47520060D01*
X106993440Y-47487040D01*
X106990900Y-47484500D01*
X106940100Y-47466720D01*
X106886760Y-47464180D01*
X106828340Y-47474340D01*
X106762300Y-47499740D01*
X106691180Y-47540380D01*
X106670860Y-47553080D01*
X106607360Y-47603880D01*
X106538780Y-47664840D01*
X106472740Y-47735960D01*
X106409240Y-47812160D01*
X106353360Y-47888360D01*
X106307640Y-47964560D01*
X106300020Y-47982340D01*
X106259380Y-48078860D01*
X106226360Y-48188080D01*
X106206040Y-48299840D01*
X106198420Y-48414140D01*
X106198420Y-48419220D01*
X106206040Y-48513200D01*
X106221280Y-48599560D01*
X106249220Y-48670680D01*
X106287320Y-48734180D01*
X106333040Y-48782440D01*
X106388920Y-48818000D01*
X106452420Y-48840860D01*
X106526080Y-48848480D01*
X106551480Y-48848480D01*
X106594660Y-48843400D01*
X106637840Y-48833240D01*
X106668320Y-48823080D01*
X106731820Y-48795140D01*
X106792780Y-48762120D01*
X106851200Y-48716400D01*
X106886760Y-48683380D01*
X106975660Y-48589400D01*
X107051860Y-48482720D01*
X107117900Y-48365880D01*
X107168700Y-48238880D01*
X107199180Y-48139820D01*
X107211880Y-48073780D01*
X107219500Y-47997580D01*
X107219500Y-47921380D01*
X107219500Y-48599560D01*
X107199180Y-48635120D01*
X107122980Y-48734180D01*
X107041700Y-48823080D01*
X106952800Y-48896740D01*
X106858820Y-48960240D01*
X106762300Y-49005960D01*
X106660700Y-49038980D01*
X106645460Y-49041520D01*
X106551480Y-49054220D01*
X106457500Y-49049140D01*
X106371140Y-49031360D01*
X106289860Y-48995800D01*
X106216200Y-48947540D01*
X106173020Y-48911980D01*
X106117140Y-48848480D01*
X106073960Y-48777360D01*
X106040940Y-48698620D01*
X106015540Y-48607180D01*
X106005380Y-48561460D01*
X105990140Y-48477640D01*
X105957120Y-48538600D01*
X105919020Y-48599560D01*
X105919020Y-47916300D01*
X105908860Y-47824860D01*
X105898700Y-47781680D01*
X105873300Y-47705480D01*
X105837740Y-47636900D01*
X105817420Y-47606420D01*
X105817420Y-46963800D01*
X105817420Y-46910460D01*
X105814880Y-46859660D01*
X105812340Y-46813940D01*
X105807260Y-46775840D01*
X105802180Y-46750440D01*
X105794560Y-46735200D01*
X105792020Y-46735200D01*
X105784400Y-46742820D01*
X105769160Y-46760600D01*
X105748840Y-46791080D01*
X105725980Y-46826640D01*
X105698040Y-46867280D01*
X105672640Y-46913000D01*
X105647240Y-46956180D01*
X105624380Y-46996820D01*
X105619300Y-47009520D01*
X105588820Y-47070480D01*
X105563420Y-47136520D01*
X105538020Y-47205100D01*
X105515160Y-47266060D01*
X105502460Y-47321940D01*
X105499920Y-47327020D01*
X105497380Y-47344800D01*
X105499920Y-47352420D01*
X105507540Y-47349880D01*
X105522780Y-47344800D01*
X105550720Y-47339720D01*
X105576120Y-47334640D01*
X105619300Y-47329560D01*
X105654860Y-47329560D01*
X105685340Y-47334640D01*
X105713280Y-47342260D01*
X105738680Y-47344800D01*
X105748840Y-47347340D01*
X105759000Y-47339720D01*
X105769160Y-47316860D01*
X105779320Y-47281300D01*
X105792020Y-47233040D01*
X105802180Y-47174620D01*
X105807260Y-47156840D01*
X105812340Y-47116200D01*
X105814880Y-47070480D01*
X105817420Y-47019680D01*
X105817420Y-46963800D01*
X105817420Y-47606420D01*
X105797100Y-47575940D01*
X105748840Y-47527680D01*
X105698040Y-47489580D01*
X105685340Y-47484500D01*
X105657400Y-47471800D01*
X105634540Y-47464180D01*
X105606600Y-47464180D01*
X105583740Y-47464180D01*
X105545640Y-47471800D01*
X105507540Y-47479420D01*
X105484680Y-47487040D01*
X105431340Y-47514980D01*
X105375460Y-47553080D01*
X105314500Y-47596260D01*
X105258620Y-47644520D01*
X105225600Y-47675000D01*
X105134160Y-47774060D01*
X105057960Y-47880740D01*
X104994460Y-47995040D01*
X104946200Y-48109340D01*
X104915720Y-48228720D01*
X104897940Y-48350640D01*
X104897940Y-48449700D01*
X104908100Y-48543680D01*
X104928420Y-48627500D01*
X104961440Y-48696080D01*
X105002080Y-48754500D01*
X105052880Y-48800220D01*
X105113840Y-48830700D01*
X105141780Y-48838320D01*
X105187500Y-48848480D01*
X105228140Y-48851020D01*
X105276400Y-48845940D01*
X105299260Y-48843400D01*
X105329740Y-48833240D01*
X105370380Y-48820540D01*
X105408480Y-48805300D01*
X105416100Y-48802760D01*
X105499920Y-48751960D01*
X105581200Y-48688460D01*
X105657400Y-48612260D01*
X105725980Y-48520820D01*
X105786940Y-48419220D01*
X105840280Y-48310000D01*
X105875840Y-48210940D01*
X105901240Y-48114420D01*
X105916480Y-48012820D01*
X105919020Y-47916300D01*
X105919020Y-48599560D01*
X105891080Y-48645280D01*
X105814880Y-48741800D01*
X105731060Y-48828160D01*
X105644700Y-48901820D01*
X105550720Y-48962780D01*
X105454200Y-49008500D01*
X105395780Y-49028820D01*
X105350060Y-49038980D01*
X105299260Y-49046600D01*
X105245920Y-49051680D01*
X105192580Y-49051680D01*
X105149400Y-49049140D01*
X105129080Y-49046600D01*
X105035100Y-49018660D01*
X104953820Y-48978020D01*
X104882700Y-48922140D01*
X104821740Y-48856100D01*
X104770940Y-48774820D01*
X104732840Y-48683380D01*
X104704900Y-48581780D01*
X104704900Y-48576700D01*
X104697280Y-48520820D01*
X104694740Y-48452240D01*
X104694740Y-48381120D01*
X104697280Y-48307460D01*
X104704900Y-48236340D01*
X104715060Y-48175380D01*
X104717600Y-48172840D01*
X104758240Y-48030600D01*
X104811580Y-47895980D01*
X104882700Y-47771520D01*
X104918260Y-47718180D01*
X104953820Y-47669920D01*
X104999540Y-47619120D01*
X105047800Y-47565780D01*
X105101140Y-47512440D01*
X105151940Y-47464180D01*
X105197660Y-47426080D01*
X105230680Y-47400680D01*
X105263700Y-47377820D01*
X105281480Y-47360040D01*
X105291640Y-47347340D01*
X105294180Y-47337180D01*
X105296720Y-47311780D01*
X105304340Y-47268600D01*
X105319580Y-47215260D01*
X105339900Y-47149220D01*
X105350060Y-47121280D01*
X105378000Y-47047620D01*
X105413560Y-46966340D01*
X105454200Y-46882520D01*
X105499920Y-46801240D01*
X105545640Y-46725040D01*
X105593900Y-46656460D01*
X105637080Y-46600580D01*
X105644700Y-46592960D01*
X105685340Y-46554860D01*
X105725980Y-46534540D01*
X105776780Y-46524380D01*
X105812340Y-46524380D01*
X105868220Y-46537080D01*
X105916480Y-46562480D01*
X105957120Y-46600580D01*
X105985060Y-46653920D01*
X106000300Y-46699640D01*
X106020620Y-46826640D01*
X106028240Y-46961260D01*
X106020620Y-47095880D01*
X106002840Y-47233040D01*
X105972360Y-47357500D01*
X105949500Y-47433700D01*
X105982520Y-47479420D01*
X106035860Y-47568320D01*
X106076500Y-47664840D01*
X106106980Y-47771520D01*
X106109520Y-47794380D01*
X106117140Y-47827400D01*
X106119680Y-47852800D01*
X106122220Y-47865500D01*
X106122220Y-47868040D01*
X106127300Y-47862960D01*
X106137460Y-47847720D01*
X106152700Y-47822320D01*
X106165400Y-47804540D01*
X106223820Y-47715640D01*
X106292400Y-47626740D01*
X106368600Y-47542920D01*
X106449880Y-47466720D01*
X106528620Y-47405760D01*
X106559100Y-47380360D01*
X106579420Y-47360040D01*
X106592120Y-47344800D01*
X106592120Y-47342260D01*
X106625140Y-47202560D01*
X106668320Y-47073020D01*
X106721660Y-46948560D01*
X106790240Y-46821560D01*
X106813100Y-46783460D01*
X106848660Y-46725040D01*
X106884220Y-46671700D01*
X106919780Y-46625980D01*
X106947720Y-46590420D01*
X106965500Y-46572640D01*
X107006140Y-46544700D01*
X107054400Y-46526920D01*
X107107740Y-46524380D01*
X107163620Y-46534540D01*
X107186480Y-46544700D01*
X107229660Y-46570100D01*
X107262680Y-46608200D01*
X107288080Y-46656460D01*
X107305860Y-46719960D01*
X107308400Y-46732660D01*
X107326180Y-46869820D01*
X107328720Y-47012060D01*
X107316020Y-47154300D01*
X107290620Y-47294000D01*
X107267760Y-47377820D01*
X107249980Y-47431160D01*
X107295700Y-47499740D01*
X107351580Y-47601340D01*
X107392220Y-47705480D01*
X107417620Y-47817240D01*
X107427780Y-47934080D01*
X107427780Y-47934080D01*
D12*
X82677000Y-110490000D03*
X82677000Y-50292000D03*
X128651000Y-110490000D03*
X128651000Y-50292000D03*
D13*
X73069000Y-72192000D03*
X74969000Y-72192000D03*
X53279000Y-84074000D03*
X55179000Y-84074000D03*
X58105000Y-84074000D03*
X60005000Y-84074000D03*
X95951000Y-56896000D03*
X97851000Y-56896000D03*
D14*
X80269000Y-63992000D03*
X80269000Y-65892000D03*
D13*
X80569000Y-60442000D03*
X82469000Y-60442000D03*
X78319000Y-70192000D03*
X80219000Y-70192000D03*
X98237000Y-65024000D03*
X100137000Y-65024000D03*
X98237000Y-68834000D03*
X100137000Y-68834000D03*
X98237000Y-76454000D03*
X100137000Y-76454000D03*
X117155000Y-78232000D03*
X115255000Y-78232000D03*
X111567000Y-78232000D03*
X109667000Y-78232000D03*
D15*
X42500000Y-60500000D03*
X46500000Y-60500000D03*
X42500000Y-68000000D03*
X46500000Y-68000000D03*
X51000000Y-60500000D03*
X55000000Y-60500000D03*
X51000000Y-68000000D03*
X55000000Y-68000000D03*
X59500000Y-60500000D03*
X63500000Y-60500000D03*
X59500000Y-68000000D03*
X63500000Y-68000000D03*
X68000000Y-60500000D03*
X72000000Y-60500000D03*
X68000000Y-68000000D03*
X72000000Y-68000000D03*
D16*
X76000000Y-66500000D03*
X76000000Y-62500000D03*
D17*
X93669000Y-79692000D03*
X95869000Y-79692000D03*
X98087000Y-72644000D03*
X100287000Y-72644000D03*
X80419000Y-56692000D03*
X82619000Y-56692000D03*
X78169000Y-77942000D03*
X80369000Y-77942000D03*
D18*
X54469000Y-79452000D03*
X59069000Y-79452000D03*
D19*
X56769000Y-73152000D03*
D18*
X56769000Y-79452000D03*
D20*
X94900000Y-63000000D03*
X94900000Y-64270000D03*
X94900000Y-65540000D03*
X94900000Y-66810000D03*
X84000000Y-66810000D03*
X84000000Y-65540000D03*
X84000000Y-64270000D03*
X84000000Y-63000000D03*
X83869000Y-75192000D03*
X83869000Y-73922000D03*
X83869000Y-72652000D03*
X83869000Y-71382000D03*
X94769000Y-71382000D03*
X94769000Y-72652000D03*
X94769000Y-73922000D03*
X94769000Y-75192000D03*
D18*
X111111000Y-75388000D03*
X115711000Y-75388000D03*
D19*
X113411000Y-69088000D03*
D18*
X113411000Y-75388000D03*
D12*
X31877000Y-50292000D03*
X31877000Y-110490000D03*
D17*
X78169000Y-74192000D03*
X80369000Y-74192000D03*
X67861000Y-79756000D03*
X70061000Y-79756000D03*
X67861000Y-72136000D03*
X70061000Y-72136000D03*
D21*
X75019000Y-75692000D03*
X75019000Y-76642000D03*
X75019000Y-77592000D03*
X73019000Y-77592000D03*
X73019000Y-75692000D03*
D22*
X92669000Y-57962000D03*
X92669000Y-56692000D03*
X92669000Y-59232000D03*
X86019000Y-59232000D03*
X86019000Y-56692000D03*
D23*
X30770000Y-66786000D03*
D24*
X30770000Y-61706000D03*
X135001000Y-57404000D03*
X135001000Y-62484000D03*
X135001000Y-72644000D03*
X135001000Y-77724000D03*
D25*
X135001000Y-82804000D03*
D24*
X135001000Y-67564000D03*
X135001000Y-87884000D03*
D23*
X135001000Y-103124000D03*
D24*
X135001000Y-98044000D03*
X135001000Y-92964000D03*
X31024000Y-79380000D03*
D23*
X31024000Y-94620000D03*
D24*
X31024000Y-89540000D03*
X31024000Y-84460000D03*
D26*
X61595000Y-96464000D03*
X61595000Y-89464000D03*
X69723000Y-96464000D03*
X69723000Y-89464000D03*
D13*
X109413000Y-64008000D03*
X111313000Y-64008000D03*
D17*
X67861000Y-75946000D03*
X70061000Y-75946000D03*
X98087000Y-60706000D03*
X100287000Y-60706000D03*
X103675000Y-68580000D03*
X105875000Y-68580000D03*
X114343000Y-64008000D03*
X116543000Y-64008000D03*
X109263000Y-60452000D03*
X111463000Y-60452000D03*
X103675000Y-58420000D03*
X105875000Y-58420000D03*
D27*
X103759000Y-62230000D03*
X104709000Y-62230000D03*
X105659000Y-62230000D03*
X105659000Y-64230000D03*
X103759000Y-64230000D03*
D26*
X53721000Y-96464000D03*
X53721000Y-89464000D03*
D28*
X75819000Y-100330000D03*
X96139000Y-85090000D03*
X80899000Y-85090000D03*
X80899000Y-100330000D03*
X96139000Y-100330000D03*
X78359000Y-85090000D03*
X101219000Y-85090000D03*
X101219000Y-100330000D03*
X78359000Y-100330000D03*
D29*
X110744000Y-101118000D03*
X117094000Y-101118000D03*
X115824000Y-101118000D03*
X114554000Y-101118000D03*
X113284000Y-101118000D03*
D30*
X113919000Y-85068000D03*
D29*
X112014000Y-101118000D03*
D31*
X76971700Y-70456400D03*
X72888700Y-74709700D03*
X82289300Y-63294800D03*
X96616600Y-75557600D03*
X98237000Y-69921300D03*
X116235300Y-72371900D03*
X35682000Y-89540000D03*
X76911200Y-56718200D03*
X43091100Y-86448900D03*
X66751200Y-77647800D03*
X71807700Y-76854000D03*
X49568100Y-96659700D03*
X96523400Y-66416400D03*
X100833100Y-61850200D03*
D32*
X33392900Y-84074000D02*
X53279000Y-84074000D01*
X33006900Y-84460000D02*
X33392900Y-84074000D01*
X31024000Y-84460000D02*
X33006900Y-84460000D01*
X53279000Y-82124900D02*
X53279000Y-84074000D01*
X54469000Y-80934900D02*
X53279000Y-82124900D01*
X54469000Y-79452000D02*
X54469000Y-80934900D01*
D33*
X31024000Y-79620000D02*
X31024000Y-80392600D01*
D32*
X59147100Y-84931900D02*
X55179000Y-84931900D01*
X60005000Y-84074000D02*
X59147100Y-84931900D01*
X55179000Y-84247000D02*
X55179000Y-84931900D01*
X55179000Y-84247000D02*
X55179000Y-84074000D01*
X56769000Y-81626100D02*
X55179000Y-83216100D01*
X56769000Y-79452000D02*
X56769000Y-81626100D01*
X55179000Y-84074000D02*
X55179000Y-83216100D01*
X84000000Y-66810000D02*
X82617100Y-66810000D01*
X82469000Y-60442000D02*
X83010500Y-60442000D01*
X86019000Y-59232000D02*
X84811100Y-59232000D01*
X83010500Y-60442000D02*
X84629800Y-60746800D01*
X84629800Y-60746800D02*
X84811100Y-59232000D01*
X85953600Y-62572900D02*
X85928200Y-66802000D01*
X84629800Y-60746800D02*
X85953600Y-62572900D01*
X84000000Y-66810000D02*
X85928200Y-66802000D01*
X75019000Y-76642000D02*
X76001900Y-76642000D01*
X80219000Y-69977500D02*
X80219000Y-69334000D01*
X80219000Y-69208100D02*
X82617100Y-66810000D01*
X80219000Y-69334000D02*
X80219000Y-69208100D01*
X75069100Y-69334000D02*
X73069000Y-71334100D01*
X80219000Y-69334000D02*
X75069100Y-69334000D01*
X73069000Y-72192000D02*
X73069000Y-71334100D01*
X67861000Y-72437200D02*
X67861000Y-73068900D01*
X67861000Y-72437200D02*
X67861000Y-72136000D01*
X72938000Y-71203100D02*
X73069000Y-71334100D01*
X67861000Y-71203100D02*
X72938000Y-71203100D01*
X67861000Y-72136000D02*
X67861000Y-71203100D01*
X80219000Y-70192000D02*
X80219000Y-70084700D01*
X80219000Y-70084700D02*
X80219000Y-69977500D01*
X81188800Y-70084700D02*
X82486100Y-71382000D01*
X80219000Y-70084700D02*
X81188800Y-70084700D01*
X83869000Y-71382000D02*
X82486100Y-71382000D01*
X56769000Y-79452000D02*
X56769000Y-77969100D01*
X67861000Y-73068900D02*
X67861000Y-73804600D01*
X74649200Y-73804600D02*
X67861000Y-73804600D01*
X76001900Y-75157300D02*
X74649200Y-73804600D01*
X76001900Y-76642000D02*
X76001900Y-75157300D01*
X60933500Y-73804600D02*
X56769000Y-77969100D01*
X67861000Y-73804600D02*
X60933500Y-73804600D01*
X31024000Y-79620000D02*
X31024000Y-79380000D01*
X34417800Y-77969100D02*
X56769000Y-77969100D01*
X33006900Y-79380000D02*
X34417800Y-77969100D01*
X31024000Y-79380000D02*
X33006900Y-79380000D01*
X83882500Y-63000000D02*
X84000000Y-63000000D01*
X73019000Y-75692000D02*
X72036100Y-75692000D01*
X78319000Y-70192000D02*
X77236100Y-70192000D01*
X70061000Y-79756000D02*
X70061000Y-78823100D01*
X74969000Y-72192000D02*
X74969000Y-71334100D01*
X77236100Y-70192000D02*
X76971700Y-70456400D01*
X75846700Y-70456400D02*
X74969000Y-71334100D01*
X76971700Y-70456400D02*
X75846700Y-70456400D01*
X68961000Y-77723100D02*
X70061000Y-78823100D01*
X68961000Y-75007700D02*
X68961000Y-77723100D01*
X71351800Y-75007700D02*
X68961000Y-75007700D01*
X72036100Y-75692000D02*
X71351800Y-75007700D01*
X64746200Y-75007700D02*
X60301900Y-79452000D01*
X68961000Y-75007700D02*
X64746200Y-75007700D01*
X59069000Y-79452000D02*
X59685500Y-79452000D01*
X59685500Y-79452000D02*
X60301900Y-79452000D01*
X59685500Y-81635600D02*
X58105000Y-83216100D01*
X59685500Y-79452000D02*
X59685500Y-81635600D01*
X58105000Y-84074000D02*
X58105000Y-83216100D01*
X72888700Y-74839400D02*
X72036100Y-75692000D01*
X72888700Y-74709700D02*
X72888700Y-74839400D01*
X83869000Y-75192000D02*
X83177600Y-75192000D01*
X79035500Y-71049900D02*
X78319000Y-71049900D01*
X83177600Y-75192000D02*
X81330800Y-73215500D01*
X81330800Y-73215500D02*
X79035500Y-71049900D01*
X78319000Y-70192000D02*
X78319000Y-71049900D01*
X83882500Y-63000000D02*
X82617100Y-63000000D01*
X82322300Y-63294800D02*
X82617100Y-63000000D01*
X82289300Y-63294800D02*
X82322300Y-63294800D01*
X82289300Y-63020200D02*
X80569000Y-61299900D01*
X82289300Y-63294800D02*
X82289300Y-63020200D01*
X80569000Y-60442000D02*
X80569000Y-61299900D01*
X99332000Y-77311900D02*
X100137000Y-77311900D01*
X96951900Y-79692000D02*
X99332000Y-77311900D01*
X95869000Y-79692000D02*
X96951900Y-79692000D01*
X110170200Y-76870900D02*
X109667000Y-77374100D01*
X113411000Y-76870900D02*
X110170200Y-76870900D01*
X109667000Y-78232000D02*
X109667000Y-77374100D01*
X100137000Y-76926200D02*
X100137000Y-77311900D01*
X109219100Y-76926200D02*
X109667000Y-77374100D01*
X100137000Y-76926200D02*
X109219100Y-76926200D01*
X107385000Y-61247100D02*
X108180100Y-60452000D01*
X104709000Y-61247100D02*
X107385000Y-61247100D01*
X104709000Y-62230000D02*
X104709000Y-61247100D01*
X109263000Y-60452000D02*
X108180100Y-60452000D01*
X109413000Y-64008000D02*
X109413000Y-64865900D01*
X113411000Y-75964200D02*
X113411000Y-76870900D01*
X113411000Y-75964200D02*
X113411000Y-75388000D01*
X115371700Y-78232000D02*
X115255000Y-78232000D01*
X116989800Y-76613900D02*
X115371700Y-78232000D01*
X116989800Y-74221800D02*
X116989800Y-76613900D01*
X116673100Y-73905100D02*
X116989800Y-74221800D01*
X113411000Y-73905100D02*
X116673100Y-73905100D01*
X113411000Y-75388000D02*
X113411000Y-73905100D01*
X100137000Y-76690100D02*
X100137000Y-76926200D01*
X100137000Y-68834000D02*
X100137000Y-69691900D01*
X109263000Y-60452000D02*
X109263000Y-59519100D01*
X109413000Y-64865900D02*
X110227600Y-65680500D01*
X116650200Y-65680500D02*
X117626000Y-64704700D01*
X110227600Y-65680500D02*
X116650200Y-65680500D01*
X113845700Y-59519100D02*
X109263000Y-59519100D01*
X117626000Y-63299400D02*
X113845700Y-59519100D01*
X117626000Y-64704700D02*
X117626000Y-63299400D01*
X135001000Y-67564000D02*
X133018100Y-67564000D01*
X115362200Y-79089900D02*
X115255000Y-79089900D01*
X118802000Y-82529700D02*
X115362200Y-79089900D01*
X118802000Y-90610500D02*
X118802000Y-82529700D01*
X113284000Y-96128500D02*
X118802000Y-90610500D01*
X113284000Y-101118000D02*
X113284000Y-96128500D01*
X115255000Y-78232000D02*
X115255000Y-79089900D01*
X120485300Y-67564000D02*
X133018100Y-67564000D01*
X117626000Y-64704700D02*
X120485300Y-67564000D01*
X94769000Y-72652000D02*
X96151900Y-72652000D01*
X94769000Y-71382000D02*
X95114800Y-71382000D01*
X95114800Y-71382000D02*
X95460500Y-71382000D01*
X100137000Y-65024000D02*
X100137000Y-64166100D01*
X94900000Y-71167200D02*
X94900000Y-66810000D01*
X95114800Y-71382000D02*
X94900000Y-71167200D01*
X94900000Y-66810000D02*
X93517100Y-66810000D01*
X93517100Y-62481100D02*
X94717600Y-61280600D01*
X93517100Y-66810000D02*
X93517100Y-62481100D01*
X95651900Y-61280600D02*
X94717600Y-61280600D01*
X96717400Y-62346100D02*
X95651900Y-61280600D01*
X98317000Y-62346100D02*
X96717400Y-62346100D01*
X100137000Y-64166100D02*
X98317000Y-62346100D01*
X93876900Y-60439900D02*
X93876900Y-59232000D01*
X94717600Y-61280600D02*
X93876900Y-60439900D01*
X92669000Y-59232000D02*
X93711700Y-59232000D01*
X93711700Y-59232000D02*
X93876900Y-59232000D01*
X95355000Y-57753900D02*
X95951000Y-57753900D01*
X93876900Y-59232000D02*
X95355000Y-57753900D01*
X95951000Y-56896000D02*
X95951000Y-57753900D01*
X100137000Y-76690100D02*
X100137000Y-76454000D01*
X100137000Y-76454000D02*
X100137000Y-75596100D01*
X100137000Y-70449000D02*
X100398500Y-70710500D01*
X100137000Y-69691900D02*
X100137000Y-70449000D01*
X110227600Y-68842500D02*
X110227600Y-65680500D01*
X107575100Y-71495000D02*
X110227600Y-68842500D01*
X101183000Y-71495000D02*
X107575100Y-71495000D01*
X100398500Y-70710500D02*
X101183000Y-71495000D01*
X99193900Y-74653000D02*
X99193900Y-71915100D01*
X100137000Y-75596100D02*
X99193900Y-74653000D01*
X99193900Y-71915100D02*
X100398500Y-70710500D01*
X96524000Y-71701300D02*
X96151900Y-72073400D01*
X98980100Y-71701300D02*
X96524000Y-71701300D01*
X99193900Y-71915100D02*
X98980100Y-71701300D01*
X95460500Y-71382000D02*
X96151900Y-72073400D01*
X96151900Y-72073400D02*
X96151900Y-72652000D01*
X74000000Y-61832900D02*
X74667100Y-62500000D01*
X72000000Y-61832900D02*
X74000000Y-61832900D01*
X72000000Y-60500000D02*
X72000000Y-61832900D01*
X75333600Y-62500000D02*
X74667100Y-62500000D01*
X75333600Y-62500000D02*
X76000000Y-62500000D01*
X78824900Y-63992000D02*
X77332900Y-62500000D01*
X80269000Y-63992000D02*
X78824900Y-63992000D01*
X76000000Y-62500000D02*
X77332900Y-62500000D01*
X81404900Y-64270000D02*
X81126900Y-63992000D01*
X84000000Y-64270000D02*
X81404900Y-64270000D01*
X80269000Y-63992000D02*
X81126900Y-63992000D01*
X73482900Y-67684200D02*
X74667100Y-66500000D01*
X73482900Y-68000000D02*
X73482900Y-67684200D01*
X76000000Y-66500000D02*
X74667100Y-66500000D01*
X72000000Y-68000000D02*
X73482900Y-68000000D01*
X77940900Y-65892000D02*
X77332900Y-66500000D01*
X80269000Y-65892000D02*
X77940900Y-65892000D01*
X76000000Y-66500000D02*
X77332900Y-66500000D01*
X81478900Y-65540000D02*
X81126900Y-65892000D01*
X84000000Y-65540000D02*
X81478900Y-65540000D01*
X80269000Y-65892000D02*
X81126900Y-65892000D01*
X111567000Y-78232000D02*
X111567000Y-79089900D01*
X113036000Y-78232000D02*
X111567000Y-78232000D01*
X114397100Y-76870900D02*
X113036000Y-78232000D01*
X115711000Y-76870900D02*
X114397100Y-76870900D01*
X115711000Y-75388000D02*
X115711000Y-76870900D01*
X115610000Y-64941000D02*
X116543000Y-64008000D01*
X111388100Y-64941000D02*
X115610000Y-64941000D01*
X111313000Y-64865900D02*
X111388100Y-64941000D01*
X111313000Y-64008000D02*
X111313000Y-64865900D01*
X94769000Y-75192000D02*
X93386100Y-75192000D01*
X109024900Y-91505600D02*
X109024900Y-81632000D01*
X112014000Y-94494700D02*
X109024900Y-91505600D01*
X112014000Y-101118000D02*
X112014000Y-94494700D01*
X109024900Y-81632000D02*
X111567000Y-79089900D01*
X92585600Y-75992500D02*
X93386100Y-75192000D01*
X92585600Y-80346800D02*
X92585600Y-75992500D01*
X93870800Y-81632000D02*
X92585600Y-80346800D01*
X109024900Y-81632000D02*
X93870800Y-81632000D01*
X111313000Y-64008000D02*
X111313000Y-63150100D01*
X98237000Y-68834000D02*
X98237000Y-67976100D01*
X96517500Y-75557600D02*
X96151900Y-75192000D01*
X96616600Y-75557600D02*
X96517500Y-75557600D01*
X94769000Y-75192000D02*
X96151900Y-75192000D01*
X98237000Y-69921300D02*
X98237000Y-68834000D01*
X103759000Y-64230000D02*
X103759000Y-64973200D01*
X102852500Y-67616200D02*
X101839900Y-68628800D01*
X104500200Y-67616200D02*
X102852500Y-67616200D01*
X104792000Y-67908000D02*
X104500200Y-67616200D01*
X104792000Y-69230000D02*
X104792000Y-67908000D01*
X105074900Y-69512900D02*
X104792000Y-69230000D01*
X106754300Y-69512900D02*
X105074900Y-69512900D01*
X106973400Y-69293800D02*
X106754300Y-69512900D01*
X106973400Y-67722700D02*
X106973400Y-69293800D01*
X104223900Y-64973200D02*
X106973400Y-67722700D01*
X103759000Y-64973200D02*
X104223900Y-64973200D01*
X101187100Y-67976100D02*
X101839900Y-68628800D01*
X98237000Y-67976100D02*
X101187100Y-67976100D01*
X108559300Y-63150100D02*
X111313000Y-63150100D01*
X108294800Y-63414600D02*
X108559300Y-63150100D01*
X108294800Y-69841000D02*
X108294800Y-63414600D01*
X107301500Y-70834300D02*
X108294800Y-69841000D01*
X104527700Y-70834300D02*
X107301500Y-70834300D01*
X103908600Y-70215200D02*
X104527700Y-70834300D01*
X103426200Y-70215200D02*
X103908600Y-70215200D01*
X101839900Y-68628800D02*
X103426200Y-70215200D01*
X98237000Y-65024000D02*
X98237000Y-65881900D01*
X97851000Y-56896000D02*
X97851000Y-57753900D01*
X100957700Y-65881900D02*
X101872500Y-64967100D01*
X98237000Y-65881900D02*
X100957700Y-65881900D01*
X101878600Y-64973200D02*
X101872500Y-64967100D01*
X103759000Y-64973200D02*
X101878600Y-64973200D01*
X96993100Y-58611800D02*
X97851000Y-57753900D01*
X96993100Y-61357000D02*
X96993100Y-58611800D01*
X97321500Y-61685400D02*
X96993100Y-61357000D01*
X98590800Y-61685400D02*
X97321500Y-61685400D01*
X101872500Y-64967100D02*
X98590800Y-61685400D01*
X94530800Y-56038100D02*
X97851000Y-56038100D01*
X93876900Y-56692000D02*
X94530800Y-56038100D01*
X92669000Y-56692000D02*
X93876900Y-56692000D01*
X97851000Y-56896000D02*
X97851000Y-56038100D01*
D33*
X95587700Y-63000000D02*
X94900000Y-63000000D01*
D32*
X97379100Y-64166100D02*
X98237000Y-64166100D01*
X96213000Y-63000000D02*
X97379100Y-64166100D01*
X95587700Y-63000000D02*
X96213000Y-63000000D01*
X98237000Y-65024000D02*
X98237000Y-64166100D01*
X96789800Y-78759100D02*
X98237000Y-77311900D01*
X93669000Y-78759100D02*
X96789800Y-78759100D01*
X93669000Y-79692000D02*
X93669000Y-78759100D01*
X98237000Y-76454000D02*
X98237000Y-77311900D01*
X98087000Y-72644000D02*
X98087000Y-73576900D01*
X97741900Y-75101000D02*
X98237000Y-75596100D01*
X97741900Y-73922000D02*
X97741900Y-75101000D01*
X94769000Y-73922000D02*
X97741900Y-73922000D01*
X97741900Y-73922000D02*
X98087000Y-73576900D01*
X98237000Y-76454000D02*
X98237000Y-75596100D01*
X91461100Y-85405900D02*
X91461100Y-57962000D01*
X110180900Y-104125700D02*
X91461100Y-85405900D01*
X126936400Y-104125700D02*
X110180900Y-104125700D01*
X133018100Y-98044000D02*
X126936400Y-104125700D01*
X135001000Y-98044000D02*
X133018100Y-98044000D01*
X92669000Y-57962000D02*
X91461100Y-57962000D01*
X111111000Y-75388000D02*
X111111000Y-73905100D01*
X111771700Y-73244400D02*
X111111000Y-73905100D01*
X116946700Y-73244400D02*
X111771700Y-73244400D01*
X117650500Y-73948200D02*
X116946700Y-73244400D01*
X117650500Y-77736500D02*
X117650500Y-73948200D01*
X117155000Y-78232000D02*
X117650500Y-77736500D01*
X134252200Y-79706900D02*
X135001000Y-79706900D01*
X115824000Y-98135100D02*
X134252200Y-79706900D01*
X115824000Y-101118000D02*
X115824000Y-98135100D01*
X135001000Y-77724000D02*
X135001000Y-79706900D01*
X131904000Y-77723900D02*
X135001000Y-74626900D01*
X131904000Y-80785100D02*
X131904000Y-77723900D01*
X114554000Y-98135100D02*
X131904000Y-80785100D01*
X114554000Y-101118000D02*
X114554000Y-98135100D01*
X135001000Y-72644000D02*
X135001000Y-74626900D01*
X100287000Y-72644000D02*
X101369900Y-72644000D01*
X101642000Y-72371900D02*
X116235300Y-72371900D01*
X101369900Y-72644000D02*
X101642000Y-72371900D01*
X76911200Y-56718200D02*
X76937400Y-56692000D01*
X80419000Y-56692000D02*
X76937400Y-56692000D01*
X38773100Y-86448900D02*
X43091100Y-86448900D01*
X35682000Y-89540000D02*
X38773100Y-86448900D01*
X31024000Y-94620000D02*
X39674400Y-94416800D01*
X67861000Y-75946000D02*
X67861000Y-76878900D01*
X75019000Y-75692000D02*
X74036100Y-75692000D01*
X73331900Y-76854000D02*
X71807700Y-76854000D01*
X74036100Y-76149800D02*
X73331900Y-76854000D01*
X74036100Y-75692000D02*
X74036100Y-76149800D01*
X47224600Y-87146000D02*
X39674400Y-94416800D01*
X58699500Y-87349200D02*
X47224600Y-87146000D01*
X66641800Y-77730500D02*
X65671700Y-78813354D01*
X65671700Y-78813354D02*
X61391800Y-85129413D01*
X61391800Y-85129413D02*
X60794900Y-85744517D01*
X60794900Y-85744517D02*
X58699500Y-87349200D01*
X66525300Y-77647800D02*
X66641800Y-77730500D01*
X67861000Y-76878900D02*
X66525300Y-77647800D01*
X66525300Y-77647800D02*
X66751200Y-77647800D01*
X69723000Y-89464000D02*
X69723000Y-88622500D01*
X65419400Y-88622500D02*
X64577900Y-89464000D01*
X69723000Y-88622500D02*
X65419400Y-88622500D01*
X61595000Y-89464000D02*
X64577900Y-89464000D01*
X40223600Y-59706500D02*
X41017100Y-60500000D01*
X30011400Y-58449200D02*
X40223600Y-59706500D01*
X28137600Y-59497500D02*
X30011400Y-58449200D01*
X28074100Y-62627900D02*
X28137600Y-59497500D01*
X30770000Y-64803100D02*
X28074100Y-62627900D01*
X30770000Y-66786000D02*
X30770000Y-64803100D01*
X42500000Y-60500000D02*
X41017100Y-60500000D01*
X80899000Y-85090000D02*
X78359000Y-85090000D01*
X73255500Y-85090000D02*
X69723000Y-88622500D01*
X78359000Y-85090000D02*
X73255500Y-85090000D01*
X61595000Y-89464000D02*
X53721000Y-89464000D01*
X27966200Y-71204400D02*
X30770000Y-68768900D01*
X27966200Y-95656900D02*
X27966200Y-71204400D01*
X29064700Y-97974600D02*
X27966200Y-95656900D01*
X46366100Y-97974600D02*
X29064700Y-97974600D01*
X52038100Y-91146900D02*
X46366100Y-97974600D01*
X53721000Y-91146900D02*
X52038100Y-91146900D01*
X53721000Y-89464000D02*
X53721000Y-91146900D01*
X30770000Y-66786000D02*
X30770000Y-68768900D01*
X49763800Y-96464000D02*
X53721000Y-96464000D01*
X49568100Y-96659700D02*
X49763800Y-96464000D01*
X78359000Y-100330000D02*
X80899000Y-100330000D01*
X61595000Y-96464000D02*
X53721000Y-96464000D01*
X74493000Y-96464000D02*
X69723000Y-96464000D01*
X78359000Y-100330000D02*
X74493000Y-96464000D01*
X69723000Y-96464000D02*
X61595000Y-96464000D01*
X37538900Y-61706000D02*
X42500000Y-66667100D01*
X30770000Y-61706000D02*
X37538900Y-61706000D01*
X42500000Y-68000000D02*
X42500000Y-66667100D01*
X51000000Y-60500000D02*
X46500000Y-60500000D01*
X51000000Y-68000000D02*
X46500000Y-68000000D01*
X81232200Y-75988100D02*
X80369000Y-75124900D01*
X84981800Y-75988100D02*
X81232200Y-75988100D01*
X85251900Y-75718000D02*
X84981800Y-75988100D01*
X85251900Y-73922000D02*
X85251900Y-75718000D01*
X83869000Y-73922000D02*
X85251900Y-73922000D01*
X80369000Y-74192000D02*
X80369000Y-75124900D01*
X59500000Y-60500000D02*
X55000000Y-60500000D01*
X59500000Y-68000000D02*
X55000000Y-68000000D01*
X68000000Y-60500000D02*
X63500000Y-60500000D01*
X68000000Y-68000000D02*
X63500000Y-68000000D01*
X135001000Y-92964000D02*
X135001000Y-90981100D01*
X103675000Y-58420000D02*
X103675000Y-59352900D01*
X103759000Y-62230000D02*
X103759000Y-59352900D01*
X108151200Y-59352900D02*
X103759000Y-59352900D01*
X108686900Y-58817200D02*
X108151200Y-59352900D01*
X116657100Y-58817200D02*
X108686900Y-58817200D01*
X122863900Y-65024000D02*
X116657100Y-58817200D01*
X135332100Y-65024000D02*
X122863900Y-65024000D01*
X137006400Y-66698300D02*
X135332100Y-65024000D01*
X137006400Y-88975700D02*
X137006400Y-66698300D01*
X135001000Y-90981100D02*
X137006400Y-88975700D01*
X103759000Y-59352900D02*
X103675000Y-59352900D01*
X86019000Y-56692000D02*
X82619000Y-56692000D01*
X83869000Y-72652000D02*
X85251900Y-72652000D01*
X85912600Y-73312700D02*
X85251900Y-72652000D01*
X85912600Y-75991600D02*
X85912600Y-73312700D01*
X83962200Y-77942000D02*
X85912600Y-75991600D01*
X80369000Y-77942000D02*
X83962200Y-77942000D01*
X70061000Y-75946000D02*
X70061000Y-76878900D01*
X74001900Y-78053200D02*
X74001900Y-77592000D01*
X74278600Y-78329900D02*
X74001900Y-78053200D01*
X76698200Y-78329900D02*
X74278600Y-78329900D01*
X77086100Y-77942000D02*
X76698200Y-78329900D01*
X78169000Y-77942000D02*
X77086100Y-77942000D01*
X73019000Y-77592000D02*
X74001900Y-77592000D01*
X72879300Y-77731700D02*
X73019000Y-77592000D01*
X70913800Y-77731700D02*
X72879300Y-77731700D01*
X70061000Y-76878900D02*
X70913800Y-77731700D01*
X75019000Y-77592000D02*
X76001900Y-77592000D01*
X67861000Y-79756000D02*
X67861000Y-80688900D01*
X78169000Y-77009000D02*
X78169000Y-74192000D01*
X76584900Y-77009000D02*
X78169000Y-77009000D01*
X76001900Y-77592000D02*
X76584900Y-77009000D01*
X77195500Y-80688900D02*
X67861000Y-80688900D01*
X79269000Y-78615400D02*
X77195500Y-80688900D01*
X79269000Y-77277100D02*
X79269000Y-78615400D01*
X79000900Y-77009000D02*
X79269000Y-77277100D01*
X78169000Y-77009000D02*
X79000900Y-77009000D01*
X77959900Y-73050000D02*
X78169000Y-73259100D01*
X72057900Y-73050000D02*
X77959900Y-73050000D01*
X71143900Y-72136000D02*
X72057900Y-73050000D01*
X70061000Y-72136000D02*
X71143900Y-72136000D01*
X78169000Y-74192000D02*
X78169000Y-73259100D01*
X105659000Y-64230000D02*
X105659000Y-63247100D01*
X98087000Y-60706000D02*
X98087000Y-59773100D01*
X101118800Y-59228900D02*
X101118800Y-59773100D01*
X102860600Y-57487100D02*
X101118800Y-59228900D01*
X105875000Y-57487100D02*
X102860600Y-57487100D01*
X103014200Y-61668500D02*
X101118800Y-59773100D01*
X103014200Y-62934500D02*
X103014200Y-61668500D01*
X103326800Y-63247100D02*
X103014200Y-62934500D01*
X105659000Y-63247100D02*
X103326800Y-63247100D01*
X101118800Y-59773100D02*
X98087000Y-59773100D01*
X105875000Y-58420000D02*
X105875000Y-57487100D01*
X100621800Y-61638900D02*
X100287000Y-61638900D01*
X100833100Y-61850200D02*
X100621800Y-61638900D01*
X100287000Y-60706000D02*
X100287000Y-61638900D01*
X96282900Y-66175900D02*
X96523400Y-66416400D01*
X96282900Y-65540000D02*
X96282900Y-66175900D01*
X94900000Y-65540000D02*
X96282900Y-65540000D01*
X111463000Y-60452000D02*
X111463000Y-61384900D01*
X113153200Y-63075100D02*
X111463000Y-61384900D01*
X114343000Y-63075100D02*
X113153200Y-63075100D01*
X114343000Y-64008000D02*
X114343000Y-63075100D01*
X103675000Y-68580000D02*
X103675000Y-69512900D01*
X107634100Y-69567400D02*
X107634100Y-62230000D01*
X107027900Y-70173600D02*
X107634100Y-69567400D01*
X104801300Y-70173600D02*
X107027900Y-70173600D01*
X104140600Y-69512900D02*
X104801300Y-70173600D01*
X103675000Y-69512900D02*
X104140600Y-69512900D01*
X110617900Y-62230000D02*
X107634100Y-62230000D01*
X111463000Y-61384900D02*
X110617900Y-62230000D01*
X107634100Y-62230000D02*
X105659000Y-62230000D01*
X104891500Y-66663600D02*
X105875000Y-67647100D01*
X98060900Y-66663600D02*
X104891500Y-66663600D01*
X96947500Y-65550200D02*
X98060900Y-66663600D01*
X96947500Y-64934600D02*
X96947500Y-65550200D01*
X96282900Y-64270000D02*
X96947500Y-64934600D01*
X94900000Y-64270000D02*
X96282900Y-64270000D01*
X105875000Y-68580000D02*
X105875000Y-67647100D01*
M02*
