G04 #@! TF.FileFunction,Legend,Bot*
%FSLAX46Y46*%
G04 Gerber Fmt 4.6, Leading zero omitted, Abs format (unit mm)*
G04 Created by KiCad (PCBNEW 4.0.2-stable) date 3/27/2017 6:00:43 PM*
%MOMM*%
G01*
G04 APERTURE LIST*
%ADD10C,0.100000*%
%ADD11C,0.120000*%
%ADD12C,0.150000*%
G04 APERTURE END LIST*
D10*
D11*
X128405000Y-79160000D02*
X129405000Y-79160000D01*
X129405000Y-80860000D02*
X128405000Y-80860000D01*
X123690000Y-80860000D02*
X122690000Y-80860000D01*
X122690000Y-79160000D02*
X123690000Y-79160000D01*
X129405000Y-88480000D02*
X128405000Y-88480000D01*
X128405000Y-86780000D02*
X129405000Y-86780000D01*
D12*
X129071666Y-78617143D02*
X129119285Y-78664762D01*
X129262142Y-78712381D01*
X129357380Y-78712381D01*
X129500238Y-78664762D01*
X129595476Y-78569524D01*
X129643095Y-78474286D01*
X129690714Y-78283810D01*
X129690714Y-78140952D01*
X129643095Y-77950476D01*
X129595476Y-77855238D01*
X129500238Y-77760000D01*
X129357380Y-77712381D01*
X129262142Y-77712381D01*
X129119285Y-77760000D01*
X129071666Y-77807619D01*
X128690714Y-77807619D02*
X128643095Y-77760000D01*
X128547857Y-77712381D01*
X128309761Y-77712381D01*
X128214523Y-77760000D01*
X128166904Y-77807619D01*
X128119285Y-77902857D01*
X128119285Y-77998095D01*
X128166904Y-78140952D01*
X128738333Y-78712381D01*
X128119285Y-78712381D01*
X123356666Y-78462143D02*
X123404285Y-78509762D01*
X123547142Y-78557381D01*
X123642380Y-78557381D01*
X123785238Y-78509762D01*
X123880476Y-78414524D01*
X123928095Y-78319286D01*
X123975714Y-78128810D01*
X123975714Y-77985952D01*
X123928095Y-77795476D01*
X123880476Y-77700238D01*
X123785238Y-77605000D01*
X123642380Y-77557381D01*
X123547142Y-77557381D01*
X123404285Y-77605000D01*
X123356666Y-77652619D01*
X123023333Y-77557381D02*
X122356666Y-77557381D01*
X122785238Y-78557381D01*
X129071666Y-86082143D02*
X129119285Y-86129762D01*
X129262142Y-86177381D01*
X129357380Y-86177381D01*
X129500238Y-86129762D01*
X129595476Y-86034524D01*
X129643095Y-85939286D01*
X129690714Y-85748810D01*
X129690714Y-85605952D01*
X129643095Y-85415476D01*
X129595476Y-85320238D01*
X129500238Y-85225000D01*
X129357380Y-85177381D01*
X129262142Y-85177381D01*
X129119285Y-85225000D01*
X129071666Y-85272619D01*
X128500238Y-85605952D02*
X128595476Y-85558333D01*
X128643095Y-85510714D01*
X128690714Y-85415476D01*
X128690714Y-85367857D01*
X128643095Y-85272619D01*
X128595476Y-85225000D01*
X128500238Y-85177381D01*
X128309761Y-85177381D01*
X128214523Y-85225000D01*
X128166904Y-85272619D01*
X128119285Y-85367857D01*
X128119285Y-85415476D01*
X128166904Y-85510714D01*
X128214523Y-85558333D01*
X128309761Y-85605952D01*
X128500238Y-85605952D01*
X128595476Y-85653571D01*
X128643095Y-85701190D01*
X128690714Y-85796429D01*
X128690714Y-85986905D01*
X128643095Y-86082143D01*
X128595476Y-86129762D01*
X128500238Y-86177381D01*
X128309761Y-86177381D01*
X128214523Y-86129762D01*
X128166904Y-86082143D01*
X128119285Y-85986905D01*
X128119285Y-85796429D01*
X128166904Y-85701190D01*
X128214523Y-85653571D01*
X128309761Y-85605952D01*
M02*
