G04 #@! TF.FileFunction,Copper,L2,Bot,Signal*
%FSLAX46Y46*%
G04 Gerber Fmt 4.6, Leading zero omitted, Abs format (unit mm)*
G04 Created by KiCad (PCBNEW (2015-08-05 BZR 6055, Git fa29c62)-product) date 4/15/2016 12:47:28 PM*
%MOMM*%
G01*
G04 APERTURE LIST*
%ADD10C,0.100000*%
%ADD11C,0.300000*%
%ADD12C,6.400000*%
%ADD13R,3.000000X3.000000*%
%ADD14O,3.000000X3.000000*%
%ADD15C,3.000000*%
%ADD16C,1.000000*%
%ADD17C,0.762000*%
%ADD18C,0.355600*%
G04 APERTURE END LIST*
D10*
D11*
X117243285Y-48580571D02*
X116743285Y-50080571D01*
X116243285Y-48580571D01*
X115171857Y-50009143D02*
X115314714Y-50080571D01*
X115600428Y-50080571D01*
X115743285Y-50009143D01*
X115814714Y-49866286D01*
X115814714Y-49294857D01*
X115743285Y-49152000D01*
X115600428Y-49080571D01*
X115314714Y-49080571D01*
X115171857Y-49152000D01*
X115100428Y-49294857D01*
X115100428Y-49437714D01*
X115814714Y-49580571D01*
X114457571Y-50080571D02*
X114457571Y-49080571D01*
X114457571Y-49366286D02*
X114386143Y-49223429D01*
X114314714Y-49152000D01*
X114171857Y-49080571D01*
X114029000Y-49080571D01*
X112100429Y-48580571D02*
X111957572Y-48580571D01*
X111814715Y-48652000D01*
X111743286Y-48723429D01*
X111671857Y-48866286D01*
X111600429Y-49152000D01*
X111600429Y-49509143D01*
X111671857Y-49794857D01*
X111743286Y-49937714D01*
X111814715Y-50009143D01*
X111957572Y-50080571D01*
X112100429Y-50080571D01*
X112243286Y-50009143D01*
X112314715Y-49937714D01*
X112386143Y-49794857D01*
X112457572Y-49509143D01*
X112457572Y-49152000D01*
X112386143Y-48866286D01*
X112314715Y-48723429D01*
X112243286Y-48652000D01*
X112100429Y-48580571D01*
X110957572Y-49937714D02*
X110886144Y-50009143D01*
X110957572Y-50080571D01*
X111029001Y-50009143D01*
X110957572Y-49937714D01*
X110957572Y-50080571D01*
X109457572Y-50080571D02*
X110314715Y-50080571D01*
X109886143Y-50080571D02*
X109886143Y-48580571D01*
X110029000Y-48794857D01*
X110171858Y-48937714D01*
X110314715Y-49009143D01*
D12*
X82677000Y-110490000D03*
X82677000Y-50292000D03*
X128651000Y-110490000D03*
X128651000Y-50292000D03*
X31877000Y-50292000D03*
X31877000Y-110490000D03*
D13*
X30770000Y-66786000D03*
D14*
X30770000Y-61706000D03*
X135001000Y-57404000D03*
X135001000Y-62484000D03*
X135001000Y-72644000D03*
X135001000Y-77724000D03*
D15*
X135001000Y-82804000D03*
D14*
X135001000Y-67564000D03*
X135001000Y-87884000D03*
D13*
X135001000Y-103124000D03*
D14*
X135001000Y-98044000D03*
X135001000Y-92964000D03*
X31024000Y-79380000D03*
D13*
X31024000Y-94620000D03*
D14*
X31024000Y-89540000D03*
X31024000Y-84460000D03*
D16*
X75819000Y-100330000D03*
X96139000Y-85090000D03*
X80899000Y-85090000D03*
X80899000Y-100330000D03*
X96139000Y-100330000D03*
X78359000Y-85090000D03*
X101219000Y-85090000D03*
X101219000Y-100330000D03*
X78359000Y-100330000D03*
D17*
X76971700Y-70456400D03*
X72888700Y-74709700D03*
X82289300Y-63294800D03*
X96616600Y-75557600D03*
X98237000Y-69921300D03*
X116235300Y-72371900D03*
X35682000Y-89540000D03*
X76911200Y-56718200D03*
X43091100Y-86448900D03*
X66751200Y-77647800D03*
X71807700Y-76854000D03*
X49568100Y-96659700D03*
X96523400Y-66416400D03*
X100833100Y-61850200D03*
D18*
X76971700Y-70626700D02*
X72888700Y-74709700D01*
X76971700Y-70456400D02*
X76971700Y-70626700D01*
X82289300Y-65138800D02*
X82289300Y-63294800D01*
X76971700Y-70456400D02*
X82289300Y-65138800D01*
X98237000Y-73937200D02*
X98237000Y-69921300D01*
X96616600Y-75557600D02*
X98237000Y-73937200D01*
X135001000Y-87884000D02*
X135001000Y-82804000D01*
X116235300Y-82375400D02*
X116235300Y-72371900D01*
X135001000Y-101141100D02*
X116235300Y-82375400D01*
X135001000Y-103124000D02*
X135001000Y-101141100D01*
X46736000Y-78486000D02*
X46736000Y-72936100D01*
X46736000Y-72936100D02*
X49606200Y-70065900D01*
X49606200Y-70065900D02*
X56388000Y-70065900D01*
X56388000Y-70065900D02*
X57188100Y-69265800D01*
X57188100Y-69265800D02*
X57188100Y-64770000D01*
X57188100Y-64770000D02*
X59359800Y-62598300D01*
X59359800Y-62598300D02*
X64770000Y-62598300D01*
X64770000Y-62598300D02*
X65684400Y-61683900D01*
X65684400Y-61683900D02*
X65684400Y-58254900D01*
X65684400Y-58254900D02*
X67221100Y-56718200D01*
X67221100Y-56718200D02*
X76911200Y-56718200D01*
X35682000Y-89540000D02*
X31024000Y-89540000D01*
X46736000Y-82804000D02*
X46736000Y-78486000D01*
X43091100Y-86448900D02*
X46736000Y-82804000D01*
X71251800Y-77409900D02*
X71807700Y-76854000D01*
X66751200Y-77647800D02*
X71251800Y-77409900D01*
X30770000Y-61706000D02*
X30770000Y-61719900D01*
X30770000Y-61719900D02*
X37376100Y-68326000D01*
X37376100Y-84467700D02*
X49568100Y-96659700D01*
X37376100Y-68326000D02*
X37376100Y-84467700D01*
X123825000Y-57404000D02*
X135001000Y-57404000D01*
X96139000Y-85090000D02*
X123825000Y-57404000D01*
X135001000Y-62484000D02*
X133018100Y-62484000D01*
X133018100Y-62484100D02*
X133018100Y-62484000D01*
X123824900Y-62484100D02*
X133018100Y-62484100D01*
X101219000Y-85090000D02*
X123824900Y-62484100D01*
X100833100Y-62106700D02*
X96523400Y-66416400D01*
X100833100Y-61850200D02*
X100833100Y-62106700D01*
M02*
